<?xml version="1.0" encoding="UTF-8" standalone="no"?>
<svg
   xmlns:dc="http://purl.org/dc/elements/1.1/"
   xmlns:cc="http://creativecommons.org/ns#"
   xmlns:rdf="http://www.w3.org/1999/02/22-rdf-syntax-ns#"
   xmlns:svg="http://www.w3.org/2000/svg"
   xmlns="http://www.w3.org/2000/svg"
   viewBox="0 0 200 41.999998"
   height="42"
   width="200"
   xml:space="preserve"
   version="1.1"
   id="svg2"><metadata
     id="metadata8"><rdf:RDF><cc:Work
         rdf:about=""><dc:format>image/svg+xml</dc:format><dc:type
           rdf:resource="http://purl.org/dc/dcmitype/StillImage" /><dc:title></dc:title></cc:Work></rdf:RDF></metadata><defs
     id="defs6"><clipPath
       id="clipPath16"
       clipPathUnits="userSpaceOnUse"><path
         id="path18"
         d="m 0,841.89 595.276,0 L 595.276,0 0,0 0,841.89 Z" /></clipPath></defs><g
     transform="matrix(1.25,0,0,-1.25,0,41.999951)"
     id="g10"><g
       transform="matrix(0.33172034,0,0,0.33172034,-18.732579,-123.02085)"
       id="g12"><g
         clip-path="url(#clipPath16)"
         id="g14"><path
           id="path20"
           style="fill:#231f20;fill-opacity:1;fill-rule:nonzero;stroke:none"
           d="m 196.543,404.039 -8.276,0 0,48.176 25.134,0 0,-5.518 -16.858,0 0,-15.833 14.106,0 0,-5.517 -14.106,0 0,-21.308 z" /><path
           id="path22"
           style="fill:#231f20;fill-opacity:1;fill-rule:nonzero;stroke:none"
           d="m 238.857,438.462 0,-5.857 -7.567,0 c -0.873,0 -1.628,-0.138 -2.271,-0.414 -0.642,-0.274 -1.146,-0.595 -1.513,-0.962 l 0,-27.19 -8.278,0 0,34.423 5.864,0 1.035,-2.752 0.344,0 c 0.735,0.686 1.722,1.318 2.962,1.892 1.238,0.573 2.889,0.86 4.953,0.86 l 4.471,0 z" /><path
           id="path24"
           style="fill:#231f20;fill-opacity:1;fill-rule:nonzero;stroke:none"
           d="m 259.487,420.551 -3.77,0 c -0.594,0 -1.2,-0.093 -1.818,-0.277 -0.617,-0.182 -1.165,-0.515 -1.645,-0.998 -0.48,-0.48 -0.88,-1.124 -1.2,-1.926 -0.32,-0.805 -0.481,-1.802 -0.481,-2.996 0,-1.195 0.161,-2.193 0.481,-2.996 0.32,-0.803 0.72,-1.446 1.2,-1.928 0.48,-0.482 1.028,-0.816 1.645,-0.998 0.618,-0.185 1.224,-0.277 1.818,-0.277 0.868,0 1.623,0.139 2.262,0.415 0.64,0.274 1.143,0.596 1.508,0.963 l 0,11.018 z m -6.521,-17.191 c -1.468,0 -2.846,0.15 -4.13,0.447 -1.286,0.297 -2.408,0.859 -3.373,1.682 -0.965,0.825 -1.733,1.947 -2.307,3.367 -0.573,1.42 -0.859,3.252 -0.859,5.498 0,2.245 0.286,4.076 0.859,5.497 0.573,1.42 1.364,2.542 2.373,3.366 1.008,0.824 2.199,1.385 3.576,1.682 1.374,0.298 2.888,0.448 4.539,0.448 1.054,0 2.074,-0.07 3.059,-0.207 0.985,-0.138 1.914,-0.299 2.784,-0.482 l 0,2.766 c 0,2.767 -0.641,4.613 -1.925,5.536 -1.286,0.924 -3.051,1.386 -5.299,1.386 l -6.881,0 0,3.425 c 1.055,0.366 2.35,0.684 3.888,0.959 1.537,0.275 2.993,0.412 4.371,0.412 2.337,0 4.38,-0.162 6.124,-0.483 1.747,-0.32 3.217,-0.906 4.413,-1.755 1.194,-0.848 2.092,-2.042 2.69,-3.579 0.598,-1.537 0.896,-3.498 0.896,-5.885 l 0,-23.401 -5.85,0 -1.032,2.064 -0.344,0 c -0.735,-0.689 -1.699,-1.317 -2.891,-1.887 -1.193,-0.57 -2.754,-0.856 -4.681,-0.856" /><path
           id="path26"
           style="fill:#231f20;fill-opacity:1;fill-rule:nonzero;stroke:none"
           d="m 291.838,439.142 c 1.47,0 2.849,-0.149 4.136,-0.449 1.286,-0.298 2.411,-0.86 3.377,-1.685 0.966,-0.827 1.735,-1.951 2.309,-3.373 0.574,-1.423 0.862,-3.258 0.862,-5.506 l 0,-24.09 -8.277,0 0,24.107 c 0,1.194 -0.161,2.191 -0.482,2.997 -0.323,0.802 -0.736,1.446 -1.24,1.927 -0.505,0.482 -1.089,0.816 -1.756,0.999 -0.665,0.184 -1.343,0.277 -2.031,0.277 -0.872,0 -1.63,-0.138 -2.271,-0.413 -0.643,-0.278 -1.148,-0.598 -1.516,-0.965 l 0,-28.929 -8.277,0 0,34.423 5.86,0 1.034,-2.065 0.344,0 c 0.735,0.689 1.724,1.318 2.965,1.889 1.24,0.57 2.895,0.856 4.963,0.856" /><path
           id="path28"
           style="fill:#231f20;fill-opacity:1;fill-rule:nonzero;stroke:none"
           d="m 324.873,434.346 c -1.056,0 -1.995,-0.196 -2.821,-0.588 -0.825,-0.39 -1.548,-1.078 -2.167,-2.067 -0.619,-0.988 -1.09,-2.331 -1.411,-4.031 -0.32,-1.701 -0.481,-3.837 -0.481,-6.408 0,-2.574 0.172,-4.71 0.515,-6.41 0.344,-1.701 0.839,-3.044 1.48,-4.032 0.643,-0.989 1.434,-1.677 2.373,-2.068 0.941,-0.389 2.007,-0.587 3.201,-0.587 l 7.568,0 0,-3.425 c -1.054,-0.365 -2.373,-0.685 -3.956,-0.959 -1.583,-0.274 -3.245,-0.411 -4.989,-0.411 -2.431,0 -4.541,0.322 -6.332,0.963 -1.792,0.643 -3.296,1.675 -4.515,3.096 -1.22,1.422 -2.127,3.269 -2.725,5.54 -0.597,2.271 -0.896,5.034 -0.896,8.293 0,3.256 0.299,6.019 0.896,8.29 0.598,2.271 1.484,4.117 2.655,5.539 1.173,1.421 2.609,2.455 4.308,3.097 1.699,0.642 3.673,0.964 5.922,0.964 1.743,0 3.406,-0.137 4.988,-0.412 1.582,-0.275 2.901,-0.593 3.955,-0.959 l 0,-3.425 -7.568,0 z" /><path
           id="path30"
           style="fill:#231f20;fill-opacity:1;fill-rule:nonzero;stroke:none"
           d="m 347.204,404.039 -8.275,0 0,48.176 8.275,0 0,-15.138 c 0.874,0.688 1.896,1.204 3.067,1.549 1.171,0.343 2.446,0.516 3.826,0.516 1.468,0 2.847,-0.149 4.133,-0.449 1.289,-0.298 2.413,-0.86 3.378,-1.685 0.964,-0.827 1.734,-1.951 2.308,-3.373 0.574,-1.423 0.862,-3.258 0.862,-5.506 l 0,-24.09 -8.277,0 0,24.107 c 0,1.194 -0.162,2.191 -0.482,2.997 -0.323,0.802 -0.735,1.446 -1.24,1.927 -0.506,0.482 -1.09,0.816 -1.757,0.999 -0.666,0.184 -1.342,0.277 -2.03,0.277 -0.874,0 -1.63,-0.138 -2.272,-0.413 -0.642,-0.278 -1.148,-0.598 -1.516,-0.965 l 0,-28.929 z" /><path
           id="path32"
           style="fill:#231f20;fill-opacity:1;fill-rule:nonzero;stroke:none"
           d="m 382.291,404.039 -8.277,0 0,48.176 25.134,0 0,-5.518 -16.857,0 0,-15.833 14.105,0 0,-5.517 -14.105,0 0,-21.308 z" /><path
           id="path34"
           style="fill:#231f20;fill-opacity:1;fill-rule:nonzero;stroke:none"
           d="m 424.606,438.462 0,-5.857 -7.568,0 c -0.871,0 -1.629,-0.138 -2.27,-0.414 -0.643,-0.274 -1.147,-0.595 -1.514,-0.962 l 0,-27.19 -8.277,0 0,34.423 5.862,0 1.035,-2.752 0.345,0 c 0.735,0.686 1.721,1.318 2.961,1.892 1.239,0.573 2.89,0.86 4.953,0.86 l 4.473,0 z" /><path
           id="path36"
           style="fill:#231f20;fill-opacity:1;fill-rule:nonzero;stroke:none"
           d="m 438.359,404.039 -8.278,0 0,34.423 8.278,0 0,-34.423 z m 0,38.541 -8.278,0 0,8.277 8.278,0 0,-8.277 z" /><path
           id="path38"
           style="fill:#231f20;fill-opacity:1;fill-rule:nonzero;stroke:none"
           d="m 463.801,423.649 c 0,2.253 -0.126,4.092 -0.377,5.518 -0.251,1.425 -0.583,2.552 -0.994,3.38 -0.41,0.827 -0.913,1.391 -1.507,1.689 -0.594,0.299 -1.234,0.449 -1.918,0.449 -0.686,0 -1.326,-0.15 -1.919,-0.449 -0.594,-0.298 -1.097,-0.862 -1.508,-1.689 -0.41,-0.828 -0.743,-1.955 -0.995,-3.38 -0.25,-1.426 -0.376,-3.265 -0.376,-5.518 l 9.594,0 z m 8.277,-4.796 -17.871,0 c 0,-3.957 0.699,-6.729 2.1,-8.316 1.398,-1.588 3.565,-2.382 6.502,-2.382 l 7.569,0 0,-3.425 c -1.056,-0.365 -2.374,-0.685 -3.959,-0.959 -1.58,-0.274 -3.243,-0.411 -4.986,-0.411 -2.662,0 -4.968,0.322 -6.919,0.963 -1.952,0.643 -3.56,1.675 -4.825,3.096 -1.263,1.422 -2.206,3.269 -2.828,5.54 -0.62,2.271 -0.929,5.034 -0.929,8.293 0,3.256 0.297,6.019 0.893,8.29 0.597,2.271 1.446,4.117 2.546,5.539 1.102,1.421 2.465,2.455 4.095,3.097 1.627,0.642 3.474,0.964 5.539,0.964 2.064,0 3.909,-0.321 5.538,-0.963 1.629,-0.643 2.994,-1.676 4.095,-3.096 1.1,-1.422 1.949,-3.267 2.545,-5.536 0.596,-2.269 0.895,-5.031 0.895,-8.286 l 0,-2.408 z" /><path
           id="path40"
           style="fill:#231f20;fill-opacity:1;fill-rule:nonzero;stroke:none"
           d="m 494.438,439.142 c 1.473,0 2.851,-0.149 4.137,-0.449 1.287,-0.298 2.412,-0.86 3.378,-1.685 0.965,-0.827 1.735,-1.951 2.309,-3.373 0.575,-1.423 0.861,-3.258 0.861,-5.506 l 0,-24.09 -8.276,0 0,24.107 c 0,1.194 -0.16,2.191 -0.482,2.997 -0.322,0.802 -0.735,1.446 -1.24,1.927 -0.506,0.482 -1.091,0.816 -1.755,0.999 -0.667,0.184 -1.344,0.277 -2.032,0.277 -0.871,0 -1.629,-0.138 -2.273,-0.413 -0.642,-0.278 -1.146,-0.598 -1.513,-0.965 l 0,-28.929 -8.278,0 0,34.423 5.86,0 1.034,-2.065 0.344,0 c 0.735,0.689 1.723,1.318 2.965,1.889 1.24,0.57 2.896,0.856 4.961,0.856" /><path
           id="path42"
           style="fill:#231f20;fill-opacity:1;fill-rule:nonzero;stroke:none"
           d="m 530.528,432.967 c -0.366,0.368 -0.867,0.688 -1.507,0.966 -0.639,0.275 -1.393,0.413 -2.26,0.413 -0.868,0 -1.679,-0.196 -2.432,-0.588 -0.753,-0.39 -1.404,-1.078 -1.952,-2.067 -0.548,-0.988 -0.981,-2.331 -1.302,-4.031 -0.318,-1.701 -0.479,-3.837 -0.479,-6.408 0,-2.574 0.161,-4.71 0.479,-6.41 0.321,-1.701 0.754,-3.044 1.302,-4.032 0.548,-0.989 1.199,-1.677 1.952,-2.068 0.753,-0.389 1.564,-0.587 2.432,-0.587 0.867,0 1.586,0.139 2.158,0.415 0.57,0.275 1.105,0.597 1.609,0.964 l 0,23.433 z m -6.514,-29.607 c -1.743,0 -3.325,0.322 -4.747,0.963 -1.421,0.643 -2.648,1.675 -3.681,3.096 -1.03,1.422 -1.834,3.269 -2.407,5.54 -0.574,2.271 -0.86,5.034 -0.86,8.293 0,3.256 0.285,6.019 0.859,8.29 0.573,2.271 1.396,4.117 2.473,5.539 1.077,1.421 2.382,2.455 3.916,3.097 1.536,0.642 3.242,0.964 5.121,0.964 1.191,0 2.278,-0.161 3.263,-0.483 0.985,-0.32 1.843,-0.734 2.577,-1.237 l 0,14.793 8.277,0 0,-48.176 -5.847,0 -1.032,2.064 -0.344,0 c -0.734,-0.689 -1.697,-1.317 -2.891,-1.887 -1.191,-0.57 -2.752,-0.856 -4.677,-0.856" /><path
           id="path44"
           style="fill:#808183;fill-opacity:1;fill-rule:nonzero;stroke:none"
           d="m 195.23,379.26 0,15.961 -3.569,0 -0.494,-10.301 c -0.038,-0.987 -0.134,-1.834 -0.289,-2.539 -0.154,-0.707 -0.32,-1.292 -0.493,-1.757 -0.212,-0.54 -0.435,-0.996 -0.667,-1.364 l 5.512,0 z m -7.108,-2.313 c -0.078,-0.869 -0.218,-1.666 -0.421,-2.391 -0.203,-0.725 -0.45,-1.378 -0.74,-1.958 l -2.175,0 0,6.662 1.45,0 c 0.232,0.368 0.455,0.824 0.667,1.364 0.174,0.465 0.338,1.051 0.494,1.757 0.153,0.707 0.25,1.553 0.29,2.54 l 0.58,12.338 10.444,0 0,-17.999 1.888,0 0,-6.662 -2.179,0 c -0.29,0.58 -0.536,1.233 -0.74,1.958 -0.203,0.725 -0.342,1.522 -0.421,2.391 l -9.137,0 z" /><path
           id="path46"
           style="fill:#808183;fill-opacity:1;fill-rule:nonzero;stroke:none"
           d="m 206.684,379.267 c 0.154,-0.154 0.367,-0.289 0.637,-0.406 0.27,-0.115 0.589,-0.173 0.957,-0.173 0.366,0 0.709,0.083 1.028,0.247 0.319,0.163 0.593,0.453 0.826,0.868 0.232,0.416 0.414,0.981 0.551,1.697 0.135,0.715 0.203,1.613 0.203,2.695 0,1.082 -0.068,1.981 -0.203,2.697 -0.137,0.714 -0.319,1.279 -0.551,1.696 -0.233,0.416 -0.507,0.704 -0.826,0.869 -0.319,0.164 -0.662,0.246 -1.028,0.246 -0.368,0 -0.672,-0.057 -0.912,-0.174 -0.243,-0.116 -0.47,-0.251 -0.682,-0.405 l 0,-9.857 z m 2.753,12.474 c 0.715,0 1.378,-0.136 1.987,-0.406 0.608,-0.272 1.13,-0.707 1.565,-1.307 0.434,-0.599 0.772,-1.377 1.013,-2.336 0.243,-0.958 0.364,-2.124 0.364,-3.497 0,-1.373 -0.121,-2.539 -0.364,-3.496 -0.241,-0.958 -0.588,-1.737 -1.042,-2.336 -0.454,-0.6 -1.005,-1.035 -1.653,-1.306 -0.646,-0.271 -1.367,-0.407 -2.16,-0.407 -0.503,0 -0.961,0.069 -1.376,0.204 -0.415,0.134 -0.778,0.309 -1.087,0.523 l 0,-6.223 -3.48,0 0,20.311 2.464,0 0.436,-0.87 0.145,0 c 0.308,0.289 0.715,0.552 1.217,0.791 0.502,0.235 1.159,0.355 1.971,0.355" /><path
           id="path48"
           style="fill:#808183;fill-opacity:1;fill-rule:nonzero;stroke:none"
           d="m 225.1,391.465 3.337,0 -2.757,-14.815 c -0.387,-2.046 -1.005,-3.523 -1.858,-4.431 -0.85,-0.908 -1.971,-1.362 -3.364,-1.362 -0.581,0 -1.118,0.058 -1.611,0.175 -0.493,0.116 -0.923,0.252 -1.291,0.407 l 0,1.456 1.886,0 c 0.368,0 0.696,0.052 0.987,0.159 0.289,0.106 0.55,0.298 0.783,0.577 0.232,0.279 0.44,0.665 0.623,1.156 0.185,0.492 0.353,1.113 0.509,1.863 -0.87,0 -1.635,0.325 -2.293,0.974 -0.657,0.648 -1.102,1.486 -1.334,2.513 l -2.611,11.328 3.336,0 2.611,-11.316 c 0.057,-0.252 0.126,-0.445 0.203,-0.581 0.077,-0.133 0.155,-0.23 0.232,-0.289 0.078,-0.078 0.175,-0.127 0.29,-0.145 l 2.322,12.331 z" /><path
           id="path50"
           style="fill:#808183;fill-opacity:1;fill-rule:nonzero;stroke:none"
           d="m 240.763,391.465 0,-5.804 0.145,0 c 0.213,0 0.416,0.103 0.61,0.305 0.193,0.203 0.424,0.634 0.695,1.292 l 0.87,2.177 c 0.291,0.733 0.678,1.301 1.161,1.704 0.484,0.401 1.161,0.602 2.031,0.602 0.252,0 0.493,-0.014 0.725,-0.042 0.232,-0.028 0.436,-0.059 0.609,-0.096 0.212,-0.055 0.396,-0.102 0.551,-0.138 l 0,-1.443 c -0.502,0 -0.869,-0.092 -1.102,-0.276 -0.231,-0.184 -0.396,-0.383 -0.493,-0.596 l -0.726,-1.891 c -0.309,-0.814 -0.643,-1.415 -1.001,-1.803 -0.358,-0.39 -0.758,-0.64 -1.203,-0.757 l 0,-0.116 c 0.521,-0.116 1.015,-0.377 1.479,-0.785 0.464,-0.407 0.803,-1.045 1.017,-1.918 l 0.58,-2.326 c 0.076,-0.291 0.26,-0.558 0.55,-0.8 0.289,-0.243 0.685,-0.363 1.189,-0.363 l 0,-1.444 c -0.154,-0.059 -0.338,-0.108 -0.551,-0.148 -0.387,-0.099 -0.832,-0.149 -1.334,-0.149 -0.948,0 -1.692,0.229 -2.234,0.686 -0.542,0.457 -0.909,1.052 -1.102,1.788 l -0.726,2.755 c -0.135,0.503 -0.343,0.894 -0.623,1.176 -0.281,0.28 -0.604,0.421 -0.972,0.421 l -0.145,0 0,-6.529 -3.48,0 0,6.529 -0.146,0 c -0.367,0 -0.691,-0.141 -0.972,-0.421 -0.279,-0.282 -0.487,-0.673 -0.623,-1.176 l -0.726,-2.755 c -0.192,-0.736 -0.56,-1.331 -1.102,-1.788 -0.541,-0.457 -1.286,-0.686 -2.234,-0.686 -0.502,0 -0.948,0.05 -1.334,0.149 -0.213,0.04 -0.396,0.089 -0.55,0.148 l 0,1.444 c 0.502,0 0.899,0.12 1.188,0.363 0.291,0.242 0.473,0.509 0.551,0.8 l 0.582,2.326 c 0.21,0.873 0.55,1.511 1.014,1.918 0.464,0.408 0.958,0.669 1.48,0.785 l 0,0.116 c -0.445,0.117 -0.846,0.367 -1.204,0.757 -0.358,0.388 -0.692,0.989 -1,1.803 l -0.727,1.891 c -0.097,0.213 -0.262,0.412 -0.493,0.596 -0.232,0.184 -0.599,0.276 -1.102,0.276 l 0,1.443 c 0.155,0.036 0.338,0.083 0.552,0.138 0.173,0.037 0.372,0.068 0.593,0.096 0.223,0.028 0.471,0.042 0.741,0.042 0.87,0 1.547,-0.201 2.031,-0.602 0.483,-0.403 0.87,-0.971 1.161,-1.704 l 0.87,-2.177 c 0.27,-0.658 0.502,-1.089 0.695,-1.292 0.193,-0.202 0.396,-0.305 0.609,-0.305 l 0.146,0 0,5.804 3.48,0 z" /><path
           id="path52"
           style="fill:#808183;fill-opacity:1;fill-rule:nonzero;stroke:none"
           d="m 257.439,385.224 c 0,0.945 -0.054,1.717 -0.16,2.314 -0.106,0.599 -0.245,1.071 -0.421,1.417 -0.172,0.348 -0.385,0.583 -0.635,0.709 -0.252,0.125 -0.522,0.189 -0.812,0.189 -0.29,0 -0.561,-0.064 -0.811,-0.189 -0.25,-0.126 -0.463,-0.361 -0.637,-0.709 -0.174,-0.346 -0.313,-0.818 -0.419,-1.417 -0.107,-0.597 -0.16,-1.369 -0.16,-2.314 l 4.055,0 z m 3.479,-2.037 -7.534,0 c 0,-1.665 0.296,-2.831 0.885,-3.499 0.589,-0.667 1.503,-1 2.741,-1 l 3.192,0 0,-1.454 c -0.446,-0.157 -1.001,-0.292 -1.668,-0.409 -0.667,-0.116 -1.368,-0.175 -2.103,-0.175 -1.123,0 -2.094,0.136 -2.916,0.407 -0.822,0.271 -1.498,0.706 -2.031,1.306 -0.532,0.599 -0.929,1.378 -1.188,2.336 -0.262,0.957 -0.394,2.123 -0.394,3.496 0,1.373 0.126,2.539 0.377,3.497 0.253,0.959 0.611,1.737 1.074,2.336 0.464,0.6 1.039,1.035 1.725,1.307 0.686,0.27 1.464,0.406 2.333,0.406 0.87,0 1.647,-0.136 2.334,-0.406 0.686,-0.271 1.259,-0.706 1.723,-1.305 0.465,-0.599 0.823,-1.377 1.074,-2.334 0.251,-0.957 0.376,-2.122 0.376,-3.495 l 0,-1.014 z" /><path
           id="path54"
           style="fill:#808183;fill-opacity:1;fill-rule:nonzero;stroke:none"
           d="m 269.626,389.703 c -0.443,0 -0.841,-0.082 -1.188,-0.246 -0.348,-0.165 -0.654,-0.453 -0.915,-0.869 -0.261,-0.417 -0.459,-0.982 -0.594,-1.696 -0.136,-0.716 -0.202,-1.615 -0.202,-2.697 0,-1.082 0.071,-1.98 0.216,-2.695 0.144,-0.716 0.352,-1.281 0.624,-1.697 0.27,-0.415 0.604,-0.705 1.002,-0.868 0.396,-0.164 0.845,-0.247 1.348,-0.247 l 3.191,0 0,-1.454 c -0.445,-0.157 -1.002,-0.292 -1.669,-0.409 -0.668,-0.116 -1.368,-0.175 -2.102,-0.175 -1.025,0 -1.915,0.136 -2.67,0.407 -0.753,0.271 -1.388,0.706 -1.899,1.306 -0.512,0.599 -0.894,1.378 -1.145,2.336 -0.251,0.957 -0.377,2.123 -0.377,3.496 0,1.373 0.126,2.539 0.377,3.497 0.251,0.959 0.623,1.737 1.116,2.336 0.493,0.6 1.096,1.035 1.813,1.307 0.714,0.27 1.547,0.406 2.495,0.406 0.735,0 1.435,-0.059 2.103,-0.176 0.667,-0.115 1.223,-0.252 1.667,-0.407 l 0,-1.455 -3.191,0 z" /><path
           id="path56"
           style="fill:#808183;fill-opacity:1;fill-rule:nonzero;stroke:none"
           d="m 284.568,391.465 0,-2.186 -3.627,0 0,-12.332 -3.48,0 0,12.332 -3.628,0 0,2.186 10.735,0 z" /><path
           id="path58"
           style="fill:#808183;fill-opacity:1;fill-rule:nonzero;stroke:none"
           d="m 291.954,378.688 c 0.329,0 0.643,0.039 0.942,0.116 0.3,0.076 0.559,0.212 0.783,0.405 0.22,0.192 0.4,0.447 0.535,0.767 0.136,0.318 0.204,0.709 0.204,1.172 0,0.868 -0.247,1.47 -0.739,1.808 -0.493,0.338 -1.068,0.507 -1.725,0.507 l -1.738,0 0,-4.775 1.738,0 z m -1.738,11.015 0,-4.203 1.452,0 c 0.27,0 0.536,0.039 0.797,0.115 0.261,0.078 0.494,0.199 0.696,0.364 0.204,0.164 0.368,0.373 0.494,0.623 0.127,0.252 0.189,0.561 0.189,0.927 0,0.407 -0.068,0.744 -0.203,1.016 -0.135,0.27 -0.305,0.492 -0.508,0.666 -0.203,0.173 -0.435,0.299 -0.696,0.376 -0.261,0.079 -0.519,0.116 -0.769,0.116 l -1.452,0 z m -3.482,1.457 c 0.735,0.213 1.485,0.362 2.25,0.449 0.764,0.087 1.659,0.132 2.685,0.132 0.948,0 1.779,-0.064 2.496,-0.188 0.715,-0.127 1.319,-0.345 1.814,-0.655 0.493,-0.309 0.866,-0.725 1.118,-1.246 0.251,-0.522 0.377,-1.181 0.377,-1.974 0,-0.465 -0.073,-0.866 -0.218,-1.205 -0.146,-0.338 -0.333,-0.623 -0.566,-0.857 -0.233,-0.231 -0.484,-0.42 -0.754,-0.565 -0.271,-0.145 -0.532,-0.267 -0.784,-0.363 l 0,-0.117 c 0.328,-0.096 0.663,-0.231 1.002,-0.405 0.337,-0.174 0.647,-0.406 0.927,-0.696 0.281,-0.291 0.512,-0.638 0.693,-1.045 0.182,-0.406 0.273,-0.879 0.273,-1.421 0,-0.871 -0.127,-1.587 -0.377,-2.149 -0.252,-0.56 -0.635,-1.005 -1.146,-1.334 -0.514,-0.33 -1.151,-0.556 -1.915,-0.682 -0.763,-0.125 -1.648,-0.189 -2.653,-0.189 -1.161,0 -2.138,0.044 -2.93,0.131 -0.793,0.087 -1.557,0.237 -2.292,0.451 l 0,13.928 z" /><path
           id="path60"
           style="fill:#808183;fill-opacity:1;fill-rule:nonzero;stroke:none"
           d="m 307.759,385.224 c 0,0.945 -0.052,1.717 -0.158,2.314 -0.107,0.599 -0.247,1.071 -0.421,1.417 -0.173,0.348 -0.386,0.583 -0.637,0.709 -0.25,0.125 -0.521,0.189 -0.81,0.189 -0.29,0 -0.561,-0.064 -0.811,-0.189 -0.251,-0.126 -0.464,-0.361 -0.638,-0.709 -0.173,-0.346 -0.313,-0.818 -0.419,-1.417 -0.106,-0.597 -0.159,-1.369 -0.159,-2.314 l 4.053,0 z m 3.481,-2.037 -7.534,0 c 0,-1.665 0.294,-2.831 0.884,-3.499 0.59,-0.667 1.504,-1 2.741,-1 l 3.192,0 0,-1.454 c -0.444,-0.157 -1,-0.292 -1.668,-0.409 -0.666,-0.116 -1.369,-0.175 -2.103,-0.175 -1.121,0 -2.095,0.136 -2.915,0.407 -0.822,0.271 -1.499,0.706 -2.031,1.306 -0.534,0.599 -0.929,1.378 -1.19,2.336 -0.261,0.957 -0.389,2.123 -0.389,3.496 0,1.373 0.124,2.539 0.376,3.497 0.25,0.959 0.607,1.737 1.07,2.336 0.465,0.6 1.041,1.035 1.725,1.307 0.687,0.27 1.466,0.406 2.335,0.406 0.87,0 1.646,-0.136 2.333,-0.406 0.686,-0.271 1.262,-0.706 1.725,-1.305 0.462,-0.599 0.821,-1.377 1.071,-2.334 0.253,-0.957 0.378,-2.122 0.378,-3.495 l 0,-1.014 z" /><path
           id="path62"
           style="fill:#808183;fill-opacity:1;fill-rule:nonzero;stroke:none"
           d="m 317.768,376.947 -3.479,0 0,14.518 3.479,0 0,-6.092 3.906,0 0,6.092 3.481,0 0,-14.518 -3.481,0 0,6.24 -3.906,0 0,-6.24 z" /><path
           id="path64"
           style="fill:#808183;fill-opacity:1;fill-rule:nonzero;stroke:none"
           d="m 332.417,376.947 -3.48,0 0,14.518 3.48,0 0,-6.092 3.904,0 0,6.092 3.481,0 0,-14.518 -3.481,0 0,6.24 -3.904,0 0,-6.24 z" /><path
           id="path66"
           style="fill:#808183;fill-opacity:1;fill-rule:nonzero;stroke:none"
           d="m 359.395,376.947 -3.48,0 0,14.518 3.48,0 0,-14.518 z m -10.733,1.741 c 0.251,0 0.509,0.044 0.77,0.13 0.26,0.087 0.493,0.233 0.698,0.435 0.202,0.204 0.373,0.484 0.508,0.843 0.135,0.357 0.203,0.806 0.203,1.35 0,0.502 -0.068,0.922 -0.203,1.261 -0.135,0.34 -0.306,0.61 -0.508,0.814 -0.205,0.202 -0.438,0.342 -0.698,0.419 -0.261,0.079 -0.519,0.117 -0.77,0.117 l -1.599,0 0,-5.369 1.599,0 z m -1.599,7.266 c 0.368,0.076 0.779,0.144 1.235,0.202 0.454,0.058 0.865,0.088 1.232,0.088 0.698,0 1.336,-0.068 1.917,-0.204 0.581,-0.137 1.084,-0.378 1.509,-0.727 0.427,-0.349 0.76,-0.834 1.004,-1.454 0.241,-0.62 0.361,-1.423 0.361,-2.412 0,-0.989 -0.125,-1.794 -0.377,-2.413 -0.251,-0.62 -0.614,-1.103 -1.089,-1.454 -0.474,-0.348 -1.063,-0.591 -1.768,-0.726 -0.708,-0.135 -1.516,-0.204 -2.425,-0.204 -1.104,0 -2.041,0.044 -2.815,0.131 -0.773,0.087 -1.529,0.237 -2.263,0.451 l 0,14.233 3.479,0 0,-5.511 z" /><path
           id="path68"
           style="fill:#808183;fill-opacity:1;fill-rule:nonzero;stroke:none"
           d="m 368.524,395.518 c 0.581,0 1.088,0.122 1.523,0.365 0.435,0.242 0.799,0.511 1.09,0.802 l 1.449,-1.452 c -0.444,-0.657 -0.996,-1.184 -1.654,-1.581 -0.658,-0.396 -1.46,-0.596 -2.408,-0.596 -0.947,0 -1.751,0.2 -2.407,0.596 -0.658,0.397 -1.209,0.924 -1.654,1.581 l 1.451,1.452 c 0.289,-0.291 0.652,-0.56 1.087,-0.802 0.435,-0.243 0.943,-0.365 1.523,-0.365 m 2.319,-9.431 -0.145,0 -4.058,-9.14 -3.479,0 0,14.518 3.332,0 0,-8.851 0.145,0 3.768,8.851 3.769,0 0,-14.518 -3.332,0 0,9.14 z" /><path
           id="path70"
           style="fill:#808183;fill-opacity:1;fill-rule:nonzero;stroke:none"
           d="m 394.055,378.835 c 0.406,0.075 0.774,0.216 1.103,0.418 0.328,0.204 0.619,0.508 0.872,0.916 0.25,0.405 0.444,0.932 0.579,1.581 0.137,0.646 0.204,1.464 0.204,2.45 0,0.987 -0.067,1.804 -0.204,2.451 -0.135,0.65 -0.329,1.176 -0.579,1.582 -0.253,0.407 -0.544,0.711 -0.872,0.915 -0.329,0.203 -0.697,0.343 -1.103,0.419 l 0,-10.732 z m -3.481,10.732 c -0.406,-0.076 -0.774,-0.216 -1.104,-0.419 -0.327,-0.204 -0.618,-0.508 -0.871,-0.915 -0.252,-0.406 -0.446,-0.932 -0.58,-1.582 -0.136,-0.647 -0.204,-1.464 -0.204,-2.451 0,-0.986 0.068,-1.804 0.204,-2.45 0.134,-0.649 0.328,-1.176 0.58,-1.581 0.253,-0.408 0.544,-0.712 0.871,-0.916 0.33,-0.202 0.698,-0.343 1.104,-0.418 l 0,10.732 z m 3.481,7.692 0,-5.656 c 1.953,-0.213 3.481,-0.919 4.586,-2.118 1.101,-1.198 1.652,-2.959 1.652,-5.279 0,-2.321 -0.551,-4.08 -1.652,-5.279 -1.105,-1.199 -2.633,-1.906 -4.586,-2.117 l 0,-5.656 -3.481,0 0,5.656 c -1.954,0.211 -3.483,0.918 -4.587,2.117 -1.101,1.199 -1.652,2.958 -1.652,5.279 0,2.32 0.551,4.081 1.652,5.279 1.104,1.199 2.633,1.905 4.587,2.118 l 0,5.656 3.481,0 z" /><path
           id="path72"
           style="fill:#808183;fill-opacity:1;fill-rule:nonzero;stroke:none"
           d="m 406.668,379.267 c 0.153,-0.154 0.366,-0.289 0.636,-0.406 0.271,-0.115 0.591,-0.173 0.957,-0.173 0.366,0 0.71,0.083 1.028,0.247 0.318,0.163 0.594,0.453 0.828,0.868 0.231,0.416 0.413,0.981 0.551,1.697 0.135,0.715 0.202,1.613 0.202,2.695 0,1.082 -0.067,1.981 -0.202,2.697 -0.138,0.714 -0.32,1.279 -0.551,1.696 -0.234,0.416 -0.51,0.704 -0.828,0.869 -0.318,0.164 -0.662,0.246 -1.028,0.246 -0.366,0 -0.671,-0.057 -0.912,-0.174 -0.243,-0.116 -0.469,-0.251 -0.681,-0.405 l 0,-9.857 z m 2.752,12.474 c 0.717,0 1.379,-0.136 1.986,-0.406 0.61,-0.272 1.13,-0.707 1.568,-1.307 0.434,-0.599 0.772,-1.377 1.015,-2.336 0.24,-0.958 0.361,-2.124 0.361,-3.497 0,-1.373 -0.121,-2.539 -0.361,-3.496 -0.243,-0.958 -0.592,-1.737 -1.045,-2.336 -0.456,-0.6 -1.006,-1.035 -1.652,-1.306 -0.647,-0.271 -1.367,-0.407 -2.161,-0.407 -0.502,0 -0.961,0.069 -1.377,0.204 -0.415,0.134 -0.777,0.309 -1.086,0.523 l 0,-6.223 -3.48,0 0,20.311 2.463,0 0.435,-0.87 0.144,0 c 0.31,0.289 0.715,0.552 1.219,0.791 0.502,0.235 1.159,0.355 1.971,0.355" /><path
           id="path74"
           style="fill:#808183;fill-opacity:1;fill-rule:nonzero;stroke:none"
           d="m 423.913,383.908 -1.588,0 c -0.25,0 -0.506,-0.038 -0.766,-0.116 -0.26,-0.077 -0.492,-0.218 -0.695,-0.421 -0.201,-0.203 -0.37,-0.474 -0.505,-0.811 -0.135,-0.338 -0.202,-0.759 -0.202,-1.261 0,-0.503 0.067,-0.924 0.202,-1.262 0.135,-0.339 0.304,-0.609 0.505,-0.812 0.203,-0.204 0.435,-0.344 0.695,-0.421 0.26,-0.077 0.516,-0.116 0.766,-0.116 0.365,0 0.684,0.059 0.952,0.173 0.27,0.117 0.483,0.253 0.636,0.406 l 0,4.641 z m -2.748,-7.258 c -0.617,0 -1.196,0.064 -1.737,0.189 -0.539,0.126 -1.013,0.364 -1.418,0.712 -0.406,0.349 -0.73,0.823 -0.97,1.423 -0.242,0.6 -0.362,1.376 -0.362,2.325 0,0.949 0.12,1.722 0.361,2.323 0.24,0.601 0.574,1.073 0.998,1.424 0.425,0.348 0.928,0.585 1.506,0.712 0.578,0.126 1.215,0.189 1.911,0.189 0.443,0 0.873,-0.03 1.287,-0.088 0.414,-0.057 0.805,-0.125 1.172,-0.203 l 0,1.157 c 0,1.157 -0.27,1.927 -0.81,2.313 -0.543,0.385 -1.288,0.577 -2.236,0.577 l -2.901,0 0,1.455 c 0.445,0.155 0.992,0.292 1.639,0.407 0.649,0.117 1.262,0.176 1.842,0.176 0.988,0 1.848,-0.068 2.583,-0.204 0.735,-0.135 1.354,-0.382 1.856,-0.739 0.503,-0.358 0.88,-0.86 1.131,-1.509 0.253,-0.646 0.378,-1.474 0.378,-2.479 l 0,-9.863 -2.463,0 -0.433,0.871 -0.146,0 c -0.309,-0.29 -0.714,-0.557 -1.217,-0.801 -0.501,-0.245 -1.157,-0.367 -1.971,-0.367" /><path
           id="path76"
           style="fill:#808183;fill-opacity:1;fill-rule:nonzero;stroke:none"
           d="m 434.656,376.947 -3.48,0 0,14.518 3.48,0 0,-6.092 3.907,0 0,6.092 3.479,0 0,-14.518 -3.479,0 0,6.24 -3.907,0 0,-6.24 z" /><path
           id="path78"
           style="fill:#808183;fill-opacity:1;fill-rule:nonzero;stroke:none"
           d="m 445.103,391.465 3.478,0 0,-5.087 c 0,-0.464 0.069,-0.857 0.202,-1.177 0.136,-0.319 0.315,-0.576 0.536,-0.769 0.222,-0.194 0.482,-0.33 0.783,-0.408 0.296,-0.078 0.611,-0.116 0.939,-0.116 l 1.445,0 0,7.557 3.481,0 0,-14.518 -3.481,0 0,5.215 c -0.366,-0.078 -0.815,-0.146 -1.345,-0.204 -0.532,-0.058 -1.048,-0.087 -1.55,-0.087 -0.619,0 -1.197,0.063 -1.738,0.19 -0.54,0.126 -1.013,0.358 -1.419,0.697 -0.406,0.34 -0.729,0.799 -0.971,1.381 -0.24,0.581 -0.36,1.326 -0.36,2.238 l 0,5.088 z" /><path
           id="path80"
           style="fill:#808183;fill-opacity:1;fill-rule:nonzero;stroke:none"
           d="m 466.261,383.908 -1.589,0 c -0.252,0 -0.506,-0.038 -0.767,-0.116 -0.26,-0.077 -0.491,-0.218 -0.692,-0.421 -0.204,-0.203 -0.372,-0.474 -0.507,-0.811 -0.134,-0.338 -0.201,-0.759 -0.201,-1.261 0,-0.503 0.067,-0.924 0.201,-1.262 0.135,-0.339 0.303,-0.609 0.507,-0.812 0.201,-0.204 0.432,-0.344 0.692,-0.421 0.261,-0.077 0.515,-0.116 0.767,-0.116 0.365,0 0.682,0.059 0.953,0.173 0.27,0.117 0.481,0.253 0.636,0.406 l 0,4.641 z m -2.747,-7.258 c -0.619,0 -1.199,0.064 -1.74,0.189 -0.539,0.126 -1.013,0.364 -1.42,0.712 -0.404,0.349 -0.726,0.823 -0.969,1.423 -0.241,0.6 -0.361,1.376 -0.361,2.325 0,0.949 0.12,1.722 0.361,2.323 0.241,0.601 0.574,1.073 0.999,1.424 0.424,0.348 0.927,0.585 1.506,0.712 0.58,0.126 1.214,0.189 1.911,0.189 0.443,0 0.872,-0.03 1.287,-0.088 0.415,-0.057 0.807,-0.125 1.173,-0.203 l 0,1.157 c 0,1.157 -0.271,1.927 -0.813,2.313 -0.542,0.385 -1.286,0.577 -2.234,0.577 l -2.901,0 0,1.455 c 0.445,0.155 0.991,0.292 1.639,0.407 0.648,0.117 1.262,0.176 1.843,0.176 0.985,0 1.847,-0.068 2.58,-0.204 0.735,-0.135 1.355,-0.382 1.858,-0.739 0.503,-0.358 0.879,-0.86 1.132,-1.509 0.25,-0.646 0.376,-1.474 0.376,-2.479 l 0,-9.863 -2.462,0 -0.434,0.871 -0.145,0 c -0.309,-0.29 -0.715,-0.557 -1.217,-0.801 -0.503,-0.245 -1.159,-0.367 -1.969,-0.367" /><path
           id="path82"
           style="fill:#808183;fill-opacity:1;fill-rule:nonzero;stroke:none"
           d="m 478.887,395.518 c 0.579,0 1.088,0.122 1.522,0.365 0.436,0.242 0.798,0.511 1.088,0.802 l 1.451,-1.452 c -0.445,-0.657 -0.996,-1.184 -1.653,-1.581 -0.659,-0.396 -1.461,-0.596 -2.408,-0.596 -0.949,0 -1.751,0.2 -2.409,0.596 -0.659,0.397 -1.209,0.924 -1.654,1.581 l 1.451,1.452 c 0.289,-0.291 0.653,-0.56 1.087,-0.802 0.436,-0.243 0.945,-0.365 1.525,-0.365 m 2.317,-9.431 -0.145,0 -4.059,-9.14 -3.478,0 0,14.518 3.331,0 0,-8.851 0.146,0 3.77,8.851 3.767,0 0,-14.518 -3.332,0 0,9.14 z" /><path
           id="path84"
           style="fill:#808183;fill-opacity:1;fill-rule:nonzero;stroke:none"
           d="m 497.157,381.004 c 0,-0.871 -0.129,-1.587 -0.391,-2.149 -0.261,-0.56 -0.658,-1.005 -1.19,-1.334 -0.534,-0.33 -1.211,-0.556 -2.034,-0.682 -0.821,-0.125 -1.794,-0.189 -2.914,-0.189 -0.735,0 -1.439,0.059 -2.106,0.175 -0.667,0.117 -1.222,0.252 -1.667,0.409 l 0,1.454 3.773,0 c 0.87,0 1.571,0.173 2.102,0.521 0.532,0.347 0.798,0.994 0.798,1.939 0,0.868 -0.242,1.47 -0.725,1.808 -0.484,0.338 -1.015,0.507 -1.596,0.507 l -2.467,0 0,2.037 2.178,0 c 0.58,0 1.111,0.165 1.595,0.492 0.483,0.33 0.725,0.89 0.725,1.682 0,0.735 -0.266,1.257 -0.798,1.565 -0.532,0.309 -1.234,0.464 -2.104,0.464 l -3.19,0 0,1.455 c 0.444,0.155 1,0.292 1.667,0.407 0.667,0.117 1.37,0.176 2.105,0.176 0.985,0 1.845,-0.064 2.582,-0.188 0.735,-0.127 1.354,-0.34 1.856,-0.64 0.504,-0.299 0.881,-0.7 1.134,-1.203 0.25,-0.504 0.376,-1.133 0.376,-1.887 0,-0.504 -0.071,-0.932 -0.218,-1.292 -0.143,-0.358 -0.343,-0.658 -0.594,-0.9 -0.25,-0.241 -0.532,-0.435 -0.841,-0.58 -0.311,-0.145 -0.63,-0.267 -0.959,-0.363 l 0,-0.117 c 0.329,-0.096 0.663,-0.231 1.002,-0.405 0.34,-0.174 0.648,-0.406 0.929,-0.696 0.28,-0.291 0.513,-0.638 0.696,-1.045 0.184,-0.406 0.276,-0.879 0.276,-1.421" /><path
           id="path86"
           style="fill:#808183;fill-opacity:1;fill-rule:nonzero;stroke:none"
           d="m 507.744,386.087 -0.146,0 -4.058,-9.14 -3.479,0 0,14.518 3.333,0 0,-8.851 0.144,0 3.768,8.851 3.769,0 0,-14.518 -3.331,0 0,9.14 z" /><path
           id="path88"
           style="fill:#808183;fill-opacity:1;fill-rule:nonzero;stroke:none"
           d="m 518.333,376.947 -3.479,0 0,14.518 3.479,0 0,-6.092 3.905,0 0,6.092 3.481,0 0,-14.518 -3.481,0 0,6.24 -3.905,0 0,-6.24 z" /><path
           id="path90"
           style="fill:#808183;fill-opacity:1;fill-rule:nonzero;stroke:none"
           d="m 538.638,391.465 0,-2.186 -5.657,0 0,-12.332 -3.482,0 0,14.518 9.139,0 z" /><path
           id="path92"
           style="fill:#b268b1;fill-opacity:1;fill-rule:nonzero;stroke:none"
           d="m 131.738,471.033 0,-37.635 -18.817,0 0,-18.816 18.817,0 0,-18.816 -37.634,0 0,-18.817 37.634,0 c 10.368,0.054 18.762,8.447 18.817,18.816 l 0,75.268 -18.817,0 z" /><path
           id="path94"
           style="fill:#00acee;fill-opacity:1;fill-rule:nonzero;stroke:none"
           d="m 112.921,452.215 0,18.817 -37.634,0 C 64.919,470.978 56.526,462.584 56.471,452.216 l 0,-75.268 18.816,0 0,37.634 18.817,0 0,18.816 -18.817,0 0,18.817 37.634,0 z" /></g></g></g></svg>