<?xml version="1.0" encoding="utf-8"?>
<!-- Generator: Adobe Illustrator 22.0.1, SVG Export Plug-In . SVG Version: 6.00 Build 0)  -->
<svg version="1.1" id="Capa_1" xmlns="http://www.w3.org/2000/svg" xmlns:xlink="http://www.w3.org/1999/xlink" x="0px" y="0px"
	 viewBox="0 0 480 480" style="enable-background:new 0 0 480 480;" xml:space="preserve">
<style type="text/css">
	.st0{fill:#A68251;}
</style>
<g>
	<g>
		<path class="st0" d="M328,32h-40V8c0-4.4-3.6-8-8-8H152c-4.4,0-8,3.6-8,8v216c0,4.4,3.6,8,8,8h40v24c0,4.4,3.6,8,8,8h128
			c4.4,0,8-3.6,8-8V40C336,35.6,332.4,32,328,32z M272,16v14.5c-6.8-2.4-12.1-7.8-14.5-14.5H272z M160,16h14.5
			c-2.4,6.8-7.8,12.1-14.5,14.5V16z M160,216v-14.5c6.8,2.4,12.1,7.8,14.5,14.5H160z M191.2,216c-3.2-15.7-15.5-28-31.2-31.2V47.2
			c15.7-3.2,28-15.5,31.2-31.2h49.6c3.2,15.7,15.5,28,31.2,31.2v137.6c-15.7,3.2-28,15.5-31.2,31.2H191.2z M272,201.5V216h-14.5
			C259.9,209.2,265.2,203.9,272,201.5z M320,248H208v-16h72c4.4,0,8-3.6,8-8V48h32V248z"/>
	</g>
</g>
<g>
	<g>
		<path class="st0" d="M216,80c-17.7,0-32,14.3-32,32s14.3,32,32,32s32-14.3,32-32S233.7,80,216,80z M216,128c-8.8,0-16-7.2-16-16
			s7.2-16,16-16s16,7.2,16,16S224.8,128,216,128z"/>
	</g>
</g>
<g>
	<g>
		<rect x="112" y="0" class="st0" width="16" height="64"/>
	</g>
</g>
<g>
	<g>
		<rect x="80" y="0" class="st0" width="16" height="32"/>
	</g>
</g>
<g>
	<g>
		<rect x="352" y="16" class="st0" width="16" height="64"/>
	</g>
</g>
<g>
	<g>
		<rect x="384" y="0" class="st0" width="16" height="32"/>
	</g>
</g>
<g>
	<g>
		<path class="st0" d="M469.4,290.6c-6.8-6.8-16-10.6-25.7-10.6h-2.1c-8,0-15.8,2.7-22.1,7.5l-77.6,59.7
			c-11.3,8.7-24.5,14.4-38.5,16.9l-101.8,17.4c-4.6,0.6-8.8-2.6-9.4-7.2c-0.1-0.4-0.1-0.7-0.1-1.1c0-3.9,2.8-7.4,6.6-8.2l78.1-16.7
			c18.7-4,30.5-22.3,26.6-41c-3.4-15.9-17.5-27.3-33.8-27.3h-60.2c-17.4,0-34.8,2.2-51.7,6.4L96,301.8V288c0-4.4-3.6-8-8-8H8
			c-4.4,0-8,3.6-8,8v184c0,4.4,3.6,8,8,8h278.4c13.3,0,26.1-4.7,36.3-13.3l146.8-124.7C483.5,327.8,483.5,304.8,469.4,290.6z
			 M80,464H16V296h64V464z M458.5,330.2L312.3,454.5c-7.2,6.1-16.4,9.5-25.9,9.5H96V318.3l65.5-16.4c15.6-3.9,31.7-5.9,47.8-5.9
			h60.2c10.2,0,18.5,8.3,18.5,18.6c0,8.7-6.1,16.3-14.6,18.1l-78.1,16.7c-13.2,2.9-21.5,15.9-18.6,29c2.7,12.5,14.6,20.8,27.3,18.9
			L306,379.9c16.6-2.8,32.2-9.7,45.6-19.9l77.6-59.7c3.5-2.7,7.9-4.2,12.4-4.2h2.1c11.2,0,20.3,9.1,20.3,20.3
			C464,321.4,462.1,326.4,458.5,330.2z"/>
	</g>
</g>
</svg>
