<?xml version="1.0" encoding="utf-8"?>
<!-- Generator: Adobe Illustrator 17.1.0, SVG Export Plug-In . SVG Version: 6.00 Build 0)  -->
<!DOCTYPE svg PUBLIC "-//W3C//DTD SVG 1.1//EN" "http://www.w3.org/Graphics/SVG/1.1/DTD/svg11.dtd">
<svg version="1.1" id="Слой_1" xmlns="http://www.w3.org/2000/svg" xmlns:xlink="http://www.w3.org/1999/xlink" x="0px" y="0px"
	 viewBox="0 0 113.4 56.7" enable-background="new 0 0 113.4 56.7" xml:space="preserve">
<path fill="#A7804C" d="M38.5,40.4l-0.1,0.3l-0.1,0.3l-0.2,0.2L38,41.4l-0.3,0.1l-0.3,0.1l-0.3,0.1l-0.3,0l-0.3,0l-0.3,0l-0.3,0
	h-0.3l0-0.3l0-0.3l0.3,0l0-0.3l0-0.3l0-0.3l0-0.3l0-0.3l0-0.3l0-0.3l0-0.3l-0.3,0l0-0.3l0-0.3l0.3,0l0.3,0l0.3,0l0.3,0l0.3,0l0.3,0
	l0.3,0.1l0.3,0.2l0.2,0.2l0.1,0.3l0,0.3l0,0.3l-0.2,0.3l0.2,0.3l0.2,0.3L38.5,40.4z M36.8,38.5l0,0.3l0,0.3l0,0.3l0.3,0l0.3-0.1
	l0.1-0.3l-0.1-0.3L37,38.5L36.8,38.5z M37.6,40.4l0-0.2L37.4,40l-0.2-0.1l-0.4,0l-0.1,0.3l0,0.3l0,0.3l0.4,0l0.2-0.1l0.2-0.2
	L37.6,40.4z"/>
<path fill="#A7804C" d="M41.7,37.8l0.1,0.3l0.2,0.3l0.1,0.3l0.1,0.3l0.1,0.3l0.1,0.3l0.1,0.3l0.1,0.3l0.1,0.3l0.1,0.3l0.1,0.3l0.4,0
	l0,0.3l0,0.3l-0.3,0l-0.3,0l-0.3,0l-0.3-0.1l-0.3,0l0-0.3l0-0.3l0.2,0L42,40.7l-0.1-0.2l-0.3,0l-0.3-0.1l-0.3,0l-0.3,0l-0.2,0.4
	l0.2,0l0,0.3l0,0.3l-0.3,0l-0.3,0l-0.3,0l-0.3,0l-0.3,0l0-0.4l0-0.3l0.4,0l0.1-0.3l0.1-0.3l0.1-0.3l0.1-0.3l0.2-0.3l0.1-0.3l0.1-0.3
	l0.1-0.3l0.1-0.3l0.1-0.3l0.1-0.3l0.2,0L41.7,37.8L41.7,37.8z M41.7,39.8l-0.1-0.3l-0.2-0.2L41.4,39l-0.1,0.3l-0.1,0.3l-0.1,0.2
	l0.3,0L41.7,39.8z"/>
<path fill="#A7804C" d="M48,40.9l0,0.3l0,0.3l-0.3,0l-0.3,0l-0.3,0l-0.2-0.2l-0.1-0.3l0-0.3l-0.1-0.3l-0.2-0.3l-0.2-0.2L45.9,40
	l0,0.3l0,0.3l0,0.3l0.3,0l0,0.4l0,0.3l-0.3,0l-0.3,0l-0.3,0l-0.3,0l-0.3,0.1l0-0.4l0-0.4h0.4l0-0.3l0-0.3l0-0.3l0-0.3l0-0.3l0-0.3
	l0-0.3l0-0.3l-0.4,0l0-0.3l0-0.3l0.3,0l0.3,0.1l0.3,0l0.3,0l0.3,0l0.3,0l0.3,0l0.3,0.1l0.3,0.1l0.1,0.3l0.1,0.3l0.1,0.3l-0.1,0.3
	l-0.1,0.3l-0.2,0.3l0.1,0.2l0.1,0.3l0.1,0.3l0,0.3l0.2,0.2L48,40.9z M46.2,39.3l0.3-0.1l0.2-0.3l-0.1-0.3l-0.3-0.1l-0.3,0l0,0.3
	l0,0.3l0,0.3H46.2z"/>
<path fill="#A7804C" d="M52.2,40.4l0,0.3l-0.1,0.3l-0.2,0.2l-0.2,0.2l-0.3,0.1l-0.3,0.1l-0.3,0l-0.3,0l-0.3,0l-0.3,0l-0.3,0
	l-0.3-0.1l0-0.3l0-0.3l0.3,0l0-0.3l0-0.3l0-0.3l0-0.3l0-0.3l0-0.3l0-0.3l0-0.3l-0.3,0l0-0.3l0-0.4l0.3,0l0.3,0l0.3,0l0.3,0l0.3,0
	l0.3,0l0.3,0.1l0.3,0.2l0.2,0.2l0.1,0.3l0.1,0.3L52,39.2l-0.1,0.3l0.2,0.2l0.1,0.3L52.2,40.4z M50.5,38.5l0,0.3l0,0.3l0,0.3l0.3,0
	l0.3-0.1l0.1-0.3L51,38.6l-0.3-0.1L50.5,38.5z M51.4,40.4l-0.1-0.2L51.1,40l-0.2-0.1h-0.4l0,0.3l0,0.3l0,0.3l0.4,0l0.2,0l0.2-0.2
	L51.4,40.4z"/>
<polygon fill="#A7804C" points="56.8,40 56.8,40.3 56.7,40.6 56.6,41 56.6,41.3 56.6,41.6 56.3,41.6 56,41.6 55.7,41.6 55.4,41.6 
	55.1,41.6 54.8,41.6 54.6,41.6 54.3,41.6 54,41.6 53.7,41.6 53.4,41.6 53.4,41.2 53.4,40.9 53.7,40.9 53.7,40.6 53.7,40.3 53.7,40 
	53.7,39.7 53.8,39.4 53.7,39.1 53.7,38.8 53.7,38.5 53.4,38.4 53.4,38.1 53.4,37.8 53.7,37.7 54,37.8 54.3,37.8 54.6,37.8 
	54.9,37.8 55.2,37.8 55.5,37.8 55.8,37.8 56.1,37.8 56.4,37.8 56.4,38.1 56.6,38.4 56.6,38.7 56.7,39.1 56.4,39 56,39.1 55.9,38.8 
	55.8,38.5 55.5,38.4 55.2,38.4 54.9,38.4 54.6,38.5 54.6,38.7 54.6,39 54.6,39.3 54.8,39.3 55.1,39.3 55.1,39 55.4,39 55.8,39 
	55.8,39.3 55.7,39.6 55.7,39.9 55.7,40.2 55.4,40.2 55.1,40.3 55.1,39.9 54.8,40 54.6,40 54.6,40.3 54.6,40.6 54.6,40.9 54.9,40.9 
	55.2,40.9 55.4,40.9 55.7,40.9 56,40.7 56,40.4 56.1,40 56.4,40 "/>
<path fill="#A7804C" d="M61.4,40.9l0,0.3l0,0.3l-0.3,0l-0.3,0l-0.3,0l-0.2-0.2l-0.1-0.3l0-0.3l0-0.3l-0.2-0.3L59.6,40l-0.3-0.1
	l0,0.3l0,0.3l0,0.3l0.4,0l0,0.4l0,0.3l-0.3,0l-0.3,0l-0.3,0l-0.3,0l-0.3,0l0-0.3l0-0.3l0.4,0l0-0.3l0-0.3l0-0.3l-0.1-0.3l0-0.3
	l0-0.3l0-0.3l0-0.3l-0.4,0l0-0.4l0-0.3l0.3,0l0.3,0l0.3,0l0.3,0h0.3l0.3,0l0.3,0.1l0.3,0.1l0.3,0.1l0.2,0.2l0.2,0.3l0,0.3l0,0.3
	l-0.1,0.3l-0.2,0.3l0.1,0.2l0.1,0.3l0,0.3l0.1,0.3l0.1,0.1L61.4,40.9z M59.5,39.3l0.3-0.1l0.2-0.3l-0.1-0.3l-0.3-0.1l-0.3,0l0,0.3
	l0,0.3l0,0.3L59.5,39.3z"/>
<polygon fill="#A7804C" points="65.6,40.5 65.6,40.8 65.6,41.1 65.4,41.3 65.1,41.4 64.8,41.5 64.5,41.6 64.2,41.6 63.9,41.5 
	63.6,41.4 63.3,41.2 63.3,41.6 63,41.6 62.7,41.6 62.6,41.3 62.7,41 62.7,40.6 62.7,40.3 62.7,40 63,40 63.4,40 63.4,40.4 
	63.5,40.7 63.8,40.8 64.1,40.9 64.4,40.9 64.7,40.8 64.9,40.6 64.8,40.3 64.5,40.2 64.2,40.1 64,39.9 63.7,39.8 63.4,39.7 
	63.2,39.6 62.9,39.4 62.8,39.1 62.7,38.9 62.8,38.6 63,38.3 63.2,38.1 63.5,37.9 63.8,37.8 64.1,37.8 64.4,37.8 64.7,37.9 
	64.8,38.2 64.8,37.8 65.2,37.8 65.5,37.8 65.5,38.1 65.6,38.4 65.6,38.7 65.5,39.1 65.2,39 64.8,39.1 64.9,39 64.7,38.7 64.4,38.5 
	64.1,38.5 63.8,38.6 63.6,38.8 63.8,39 64,39.1 64.3,39.2 64.6,39.3 64.9,39.4 65.1,39.5 65.4,39.7 65.5,39.9 65.6,40.2 "/>
<polygon fill="#A7804C" points="69,37.8 69.4,37.8 69.7,37.8 70,37.8 70.3,37.8 70.7,37.8 70.6,38.1 70.7,38.5 70.3,38.5 70.3,38.8 
	70.3,39.1 70.3,39.4 70.3,39.7 70.3,40 70.4,40.3 70.3,40.6 70.3,40.9 70.6,40.9 70.7,41.2 70.7,41.6 70.3,41.6 70,41.6 69.7,41.5 
	69.4,41.6 69.1,41.6 69.1,41.2 69,40.9 69.5,40.9 69.5,40.6 69.5,40.3 69.5,39.9 69.2,39.9 68.8,40 68.5,40 68.2,39.9 68.2,40.3 
	68.2,40.6 68.2,40.9 68.6,40.9 68.6,41.2 68.6,41.6 68.3,41.6 68,41.6 67.7,41.6 67.3,41.6 67,41.6 67,41.2 67,40.9 67.3,40.9 
	67.3,40.6 67.3,40.3 67.3,40 67.3,39.7 67.4,39.4 67.3,39.1 67.4,38.8 67.4,38.4 67,38.4 67,38.1 67,37.8 67.3,37.8 67.7,37.8 
	68,37.8 68.3,37.8 68.6,37.8 68.6,38.1 68.6,38.4 68.2,38.4 68.2,38.7 68.2,39 68.2,39.3 68.5,39.2 68.8,39.3 69.2,39.3 69.5,39.3 
	69.5,39 69.4,38.7 69.4,38.5 69.1,38.5 69.1,38.1 "/>
<path fill="#A7804C" d="M75.4,39.7l0,0.3l-0.1,0.3l-0.1,0.3l-0.1,0.3l-0.2,0.2l-0.2,0.2l-0.2,0.2l-0.3,0.1l-0.3,0.1l-0.3,0l-0.3,0.1
	l-0.3-0.1l-0.3-0.1l-0.3-0.1l-0.2-0.2L72,40.8l-0.2-0.3l0-0.3L71.7,40l0-0.3l0.1-0.3l0-0.3l0.1-0.3l0.2-0.3l0.2-0.2l0.2-0.2l0.3-0.1
	l0.3-0.2l0.3,0l0.3-0.1l0.3,0.1l0.3,0.1l0.3,0.1l0.2,0.2l0.3,0.2l0.1,0.3l0.1,0.3l0.1,0.3l0,0.3L75.4,39.7z M74.3,39.7l0-0.3l0-0.3
	l-0.1-0.3L74,38.7l-0.2-0.2l-0.3,0l-0.3,0.1L73,38.6l-0.2,0.2l-0.2,0.2l0,0.3l0,0.3l0,0.3l0.1,0.3l0.1,0.3l0.2,0.2l0.3,0.1l0.3,0.1
	l0.3-0.1l0.2-0.2l0.2-0.2l0.1-0.3l0.1-0.3L74.3,39.7z"/>
<path fill="#A7804C" d="M79.2,38.9l-0.1,0.3L79,39.4l-0.2,0.2l-0.2,0.2l-0.3,0l-0.3,0l-0.4,0l0.1,0.3l0,0.3l0,0.3l0.3,0l0,0.3l0,0.3
	l-0.3,0l-0.3,0l-0.3,0l-0.3,0l-0.3,0l-0.3,0l0.1-0.4l0-0.3l0.4,0v-0.3l0-0.3l0-0.3l-0.1-0.3l0-0.3l0-0.3l0-0.3l0-0.3l-0.4,0l0-0.3
	l0-0.3l0.3,0l0.3,0l0.3,0l0.3,0l0.3,0l0.3,0l0.3,0l0.3,0.1l0.2,0.2l0.2,0.2l0.1,0.3L79.2,38.9z M78.2,38.9l-0.1-0.3l-0.3-0.1l-0.2,0
	l0.1,0.3L77.6,39l0,0.3l0.2,0l0.3-0.2L78.2,38.9z"/>
<path fill="#A7804C" d="M28.3,39.4c-0.1-0.4,0.6,0.5,1.9,0.3c0.9-0.1,1.1-1.1,2.4-0.9c1.4,0.2,1,1.4,0.5,1.7
	c-1.1,0.7-2.2,0.5-3.1,0.2C29.3,40.6,28.4,40,28.3,39.4"/>
<path fill="#A7804C" d="M86,39.4c0.1-0.4-0.6,0.5-1.9,0.3c-0.9-0.1-1.1-1.1-2.4-0.9c-1.4,0.2-1,1.4-0.5,1.7c1.1,0.7,2.2,0.5,3.1,0.2
	C85,40.6,85.9,40,86,39.4"/>
<path fill="#A7804C" d="M14.9,37.4c-0.7,0.4-1.2,0.3-1.5-0.4c-0.2-0.5-1.4-2.9-1.7-3.8c-0.2-0.4-0.7-1-1-1.2
	c-0.2-0.1-0.4-0.2-0.8-0.3c0.2-0.3,0.2-0.5,0.3-0.9c0.1-0.4-0.1-1.2-0.4-1.8c-0.4-1-0.9-2-1.3-3c-0.6-1.2-0.8-1.6,0.7-2.3
	c1.1-0.5,2.9-1.3,3.7-1.6c0.9-0.4,1.8-0.5,2.5-0.4c0.9,0.1,1.4,0.2,2.2,1c0.4,0.4,1.2,1,1.4,2.7c0.1,0.6,0,1.2-0.2,1.8
	c-0.2,0.5-0.2,0.5,0.3,0.7c1.4,0.2,2.2,1.3,2.8,2.5c0.6,1.4,0,3.8-1.6,4.5C19.6,35.3,15.5,37.1,14.9,37.4 M18.4,33
	c0.5-0.3,0.9-1,0.6-1.8c-0.3-0.8-0.9-1.2-1.7-1c-1,0.3-1.5,0.6-2.5,1.1c-0.3,0.1-0.4,0.4-0.3,0.8c0.1,0.3,0.6,1.2,0.8,1.8
	c0.1,0.2,0.2,0.2,0.3,0.3C16,34.2,17.9,33.2,18.4,33 M15.6,27.2c0.6-0.4,0.9-1,0.6-1.8c-0.3-0.7-0.7-1.2-1.5-1
	c-1.1,0.2-1.5,0.6-2.5,1c-0.2,0.1-0.5,0.2-0.3,0.6c0.1,0.3,0.6,1.4,0.9,2c0.1,0.2,0.2,0.2,0.3,0.3C13.7,28.3,14.9,27.5,15.6,27.2"/>
<path fill="#A7804C" d="M18.2,30.8c-0.1-0.1-0.3-0.2-0.5-0.2c-0.3,0-0.5,0.1-0.8,0.2c-0.1,0-0.1,0-0.2,0.1c-0.6,0.3-1.2,0.5-1.8,0.9
	c-0.1,0.1-0.2,0.2-0.1,0.2c0,0.1,0.1,0.1,0.2,0.1c0.1,0,0.1,0,0.2,0c0.4-0.2,0.8-0.4,1.2-0.6c0,0,0.1-0.1,0.2-0.1
	c0.3-0.1,0.7-0.4,1-0.4c0.1,0,0.1,0,0.2,0.1c0,0,0.1,0,0.1,0c0.1,0,0.3-0.1,0.3-0.2C18.2,30.9,18.2,30.8,18.2,30.8 M18.2,30.9
	C18.2,30.9,18.2,30.9,18.2,30.9L18.2,30.9L18.2,30.9C18.2,30.9,18.2,30.9,18.2,30.9 M18.2,30.9C18.2,30.9,18.2,30.9,18.2,30.9
	C18.2,30.9,18.2,30.9,18.2,30.9 M18.1,30.8C18.1,30.8,18.1,30.8,18.1,30.8C18.1,30.8,18.1,30.8,18.1,30.8 M18,30.7
	C18,30.7,18,30.7,18,30.7C18,30.7,18,30.7,18,30.7 M17.9,30.7C17.9,30.7,17.9,30.7,17.9,30.7C17.9,30.7,17.9,30.7,17.9,30.7
	 M17.8,30.7C17.7,30.7,17.7,30.7,17.8,30.7C17.7,30.7,17.7,30.7,17.8,30.7C17.7,30.7,17.8,30.7,17.8,30.7 M17.6,31
	C17.6,31,17.6,31,17.6,31C17.6,31,17.6,31,17.6,31 M17.6,30.7C17.6,30.7,17.6,30.7,17.6,30.7C17.6,30.7,17.6,30.7,17.6,30.7
	 M17.5,30.7C17.5,30.7,17.5,30.7,17.5,30.7C17.5,30.7,17.5,30.7,17.5,30.7 M17.4,30.7C17.4,30.7,17.4,30.7,17.4,30.7
	C17.4,30.7,17.4,30.7,17.4,30.7 M17.3,30.8C17.3,30.8,17.3,30.8,17.3,30.8C17.3,30.8,17.3,30.8,17.3,30.8 M17.2,30.8
	C17.2,30.8,17.2,30.8,17.2,30.8C17.2,30.8,17.2,30.8,17.2,30.8 M17.1,30.9C17,30.9,17,30.9,17.1,30.9C17,30.9,17,30.9,17.1,30.9
	 M16.9,30.9C16.9,30.9,16.9,31,16.9,30.9C16.9,31,16.9,30.9,16.9,30.9 M17.5,31c0,0-0.1,0-0.1,0C17.5,31,17.5,31,17.5,31 M17.4,31
	c0,0-0.1,0-0.1,0C17.3,31,17.4,31,17.4,31 M17.2,31.1c0,0-0.1,0-0.1,0.1C17.1,31.1,17.2,31.1,17.2,31.1 M17.1,31.1
	c0,0-0.1,0-0.1,0.1C17,31.2,17,31.1,17.1,31.1 M16.9,31.2c0,0-0.1,0-0.1,0.1C16.8,31.2,16.9,31.2,16.9,31.2 M16.7,31.3
	c0,0-0.1,0-0.1,0.1C16.7,31.3,16.7,31.3,16.7,31.3 M16.5,31.4C16.5,31.4,16.5,31.4,16.5,31.4C16.5,31.4,16.5,31.4,16.5,31.4
	 M15,31.9C15,31.9,15,31.9,15,31.9C15,31.9,15,31.9,15,31.9 M15,31.9C15,31.9,14.9,31.9,15,31.9C14.9,31.9,15,31.9,15,31.9 M14.9,32
	C14.9,32,14.9,32,14.9,32C14.9,32,14.9,32,14.9,32 M14.9,32C14.9,32,14.9,32,14.9,32C14.9,32,14.9,32,14.9,32 M14.9,32.1
	C14.9,32.1,15,32.1,14.9,32.1C15,32.1,14.9,32.1,14.9,32.1 M15,32.1C15,32.1,15,32.1,15,32.1C15,32.1,15,32.1,15,32.1 M15,32.1
	C15,32.1,15.1,32.1,15,32.1C15.1,32.1,15.1,32.1,15,32.1C15,32.1,15,32.1,15,32.1 M15.1,32.1C15.1,32.1,15.1,32.1,15.1,32.1
	C15.1,32.1,15.1,32.1,15.1,32.1 M17.6,31C17.7,31,17.7,31,17.6,31C17.7,31,17.7,31,17.6,31 M17.7,31C17.7,31,17.7,31,17.7,31
	C17.7,31,17.7,31,17.7,31 M17.9,31.1C17.9,31.1,17.9,31.1,17.9,31.1C17.9,31.1,17.9,31.1,17.9,31.1C17.9,31.1,17.9,31.1,17.9,31.1
	 M17.8,31.1C17.8,31.1,17.8,31.1,17.8,31.1C17.8,31.1,17.8,31.1,17.8,31.1 M18.1,31C18.1,31,18.1,31,18.1,31
	C18.1,31,18.1,31,18.1,31 M17.9,31.1C17.9,31.1,18,31.1,17.9,31.1C18,31.1,17.9,31.1,17.9,31.1 M18,31.1C18,31.1,18,31.1,18,31.1
	C18,31.1,18,31.1,18,31.1 M18.2,30.9C18.1,31,18.1,31,18.2,30.9C18.1,31,18.1,31,18.2,30.9"/>
<path fill="#A7804C" d="M22.4,34.3c0,0-0.1-0.1-0.2-0.1c-0.1,0-0.2,0-0.3,0.1c-0.8,0.9-1.8,1.3-2.9,1.8c-0.1,0-0.2,0.1-0.3,0.1
	l-2,0.9l-2,0.9c-0.2,0.1-0.3,0.2-0.2,0.4c0,0.1,0.1,0.1,0.2,0.1c0,0,0.1,0,0.2,0l1.5-0.6l2.9-1.3c1-0.4,2.3-1,3.2-2
	C22.4,34.5,22.4,34.4,22.4,34.3 M22.3,34.4C22.3,34.4,22.3,34.4,22.3,34.4C22.3,34.4,22.3,34.4,22.3,34.4 M22.3,34.4
	C22.3,34.3,22.3,34.3,22.3,34.4C22.3,34.3,22.3,34.3,22.3,34.4 M22.3,34.3C22.2,34.3,22.2,34.3,22.3,34.3
	C22.2,34.3,22.2,34.3,22.3,34.3 M22.2,34.3C22.2,34.3,22.2,34.3,22.2,34.3C22.2,34.3,22.2,34.3,22.2,34.3
	C22.2,34.3,22.2,34.3,22.2,34.3 M22.2,34.3C22.1,34.3,22.1,34.3,22.2,34.3C22.1,34.3,22.1,34.3,22.2,34.3 M22.1,34.4
	C22.1,34.4,22.1,34.4,22.1,34.4C22.1,34.4,22.1,34.4,22.1,34.4 M22,34.4C22,34.4,22,34.4,22,34.4C22,34.4,22,34.4,22,34.4
	 M14.6,38.1C14.6,38.1,14.6,38.1,14.6,38.1C14.6,38.1,14.6,38.1,14.6,38.1 M14.6,38.2C14.6,38.2,14.5,38.2,14.6,38.2
	C14.5,38.2,14.6,38.2,14.6,38.2 M14.5,38.2C14.5,38.2,14.5,38.2,14.5,38.2C14.5,38.2,14.5,38.2,14.5,38.2 M14.5,38.3
	C14.5,38.3,14.5,38.3,14.5,38.3C14.5,38.3,14.5,38.3,14.5,38.3 M14.5,38.3C14.5,38.3,14.5,38.3,14.5,38.3
	C14.5,38.3,14.5,38.3,14.5,38.3 M14.5,38.4C14.5,38.4,14.5,38.4,14.5,38.4C14.5,38.4,14.5,38.4,14.5,38.4 M14.5,38.4
	C14.5,38.4,14.6,38.4,14.5,38.4C14.6,38.4,14.6,38.4,14.5,38.4C14.6,38.4,14.5,38.4,14.5,38.4 M14.6,38.4
	C14.6,38.4,14.6,38.4,14.6,38.4C14.6,38.4,14.6,38.4,14.6,38.4 M22.3,34.5C22.3,34.5,22.3,34.5,22.3,34.5
	C22.3,34.5,22.3,34.5,22.3,34.5 M22.3,34.4C22.3,34.4,22.3,34.4,22.3,34.4C22.3,34.4,22.3,34.4,22.3,34.4 M22.3,34.4
	C22.3,34.4,22.3,34.4,22.3,34.4C22.3,34.4,22.3,34.4,22.3,34.4 M22.3,34.4C22.3,34.4,22.3,34.4,22.3,34.4
	C22.3,34.4,22.3,34.4,22.3,34.4"/>
<path fill="#A7804C" d="M35,30.7c-0.8,0.3-1.1,0.5-1.5-0.1c-0.5-0.7-1.1-1.3-1.6-2c-0.2-0.3-0.5-0.4-0.8-0.3c-0.1,0-0.2,0-0.3,0.1
	c-1.4,0.4-2.4,0.6-3.7,1.2c-0.3,0.1-0.5,0.3-0.5,0.6c-0.1,0.7-0.2,2.8-0.3,3c-0.1,0.3-0.6,0.4-1.2,0.5c-0.3,0.1-0.6,0.2-0.9,0.3
	c-0.5,0.2-0.7,0-0.6-0.5c0.1-0.5,0.4-3.4,0.5-4.5c0.1-0.9,0.3-1.5-0.1-1.8c-0.1-0.1-0.2-0.2-0.8-0.5c0.5-0.6,0.6-0.5,0.8-0.9
	c0.4-0.7,0.3-1.4,0.4-2.4c0.1-1.4,0.3-3.2,0.4-4.2c0.1-1.2,2-1.8,2.8-0.8c0.9,1.3,2.8,3.8,3.2,4.2c0.5,0.5,0.6,0.7,1.2,1
	c0.3,0.2,0.9,0.3,0.9,0.3s-0.2,0.4-0.3,0.8c-0.1,0.2,0,0.6,0.2,0.8c1,1.2,3.1,4.1,3.3,4.3c0.2,0.3,0.3,0.5-0.1,0.6
	C35.6,30.5,35,30.7,35,30.7 M27,22c-0.3,0.1-0.2,2.7-0.3,3.9c-0.1,0.8,0.1,0.9,0.9,0.7c0.4-0.1,1.7-0.5,1.9-0.6
	c0.5-0.2,0.5-0.2,0.2-0.6c-0.6-0.8-1.2-1.5-1.8-2.3C27.7,22.8,27.2,22,27,22"/>
<path fill="#A7804C" d="M22.8,27.5c0.2,0.1,0.4,0.2,0.5,0.4c0.1,0.1,0.4-0.1,0.4-0.3c-0.1-0.2-0.3-0.4-0.6-0.5c-0.1,0-0.2,0-0.3,0.1
	C22.8,27.3,22.7,27.5,22.8,27.5"/>
<path fill="#A7804C" d="M27.3,23.8c0.4,0.6,0.9,1.2,1.3,1.8c0.1,0.1,0.5-0.1,0.4-0.3c-0.4-0.6-0.9-1.2-1.3-1.8
	C27.5,23.4,27.2,23.6,27.3,23.8"/>
<path fill="#A7804C" d="M30.9,28.8C30.8,28.8,30.8,28.8,30.9,28.8c-1.1,0.3-2,0.6-2.9,0.9c0,0-0.1,0-0.1,0c-0.3,0.1-0.5,0.2-0.7,0.4
	c-0.2,0.3-0.2,0.6-0.3,0.9c0,0.1,0,0.1,0,0.2c0,0.3-0.1,0.7-0.1,1l0,0.3c0,0.2,0,0.5-0.1,0.7c0,0,0,0.1,0,0.2c0,0.1,0,0.3,0,0.4
	c0,0.1-0.2,0.1-0.4,0.1c-0.1,0-0.1,0-0.2,0c-0.2,0.1-0.4,0.1-0.7,0.2l0,0c-0.5,0.1-1,0.3-1.5,0.4c-0.1,0-0.4,0.2-0.3,0.4
	c0,0.1,0.1,0.1,0.2,0.1c0,0,0,0,0,0c0.6-0.1,1.2-0.3,1.7-0.4c0.3-0.1,0.6-0.2,0.9-0.3c0.7-0.2,0.8-0.8,0.8-1.4c0-0.1,0-0.2,0-0.2
	c0-0.2,0-0.3,0-0.5c0-0.3,0-0.5,0.1-0.8l0-0.1c0-0.2,0-0.4,0.1-0.6c0-0.3,0.2-0.4,0.5-0.5c0.9-0.3,1.8-0.6,2.8-0.9
	c0.2,0,0.3-0.2,0.3-0.4C31.1,28.8,31,28.7,30.9,28.8 M30.9,28.9C30.9,28.9,30.9,28.9,30.9,28.9C30.9,28.9,30.9,28.9,30.9,28.9
	 M30.9,28.9C30.9,28.9,30.9,28.9,30.9,28.9C30.9,28.9,30.8,28.9,30.9,28.9C30.8,28.9,30.9,28.9,30.9,28.9 M26.4,33.9
	c-0.1,0-0.2,0-0.2,0C26.2,33.9,26.3,33.9,26.4,33.9 M23.8,34.6C23.8,34.6,23.8,34.6,23.8,34.6C23.8,34.6,23.8,34.6,23.8,34.6
	 M23.9,34.5C23.9,34.5,23.9,34.5,23.9,34.5C23.9,34.5,23.9,34.5,23.9,34.5 M23.9,34.6C23.9,34.6,23.9,34.6,23.9,34.6
	C23.9,34.6,23.9,34.6,23.9,34.6 M23.8,34.7C23.8,34.7,23.8,34.7,23.8,34.7C23.8,34.7,23.8,34.7,23.8,34.7 M23.7,34.7
	C23.7,34.7,23.7,34.7,23.7,34.7C23.7,34.7,23.7,34.7,23.7,34.7 M23.7,34.8C23.7,34.8,23.7,34.8,23.7,34.8
	C23.7,34.8,23.7,34.8,23.7,34.8 M23.8,34.8C23.8,34.8,23.8,34.8,23.8,34.8C23.8,34.8,23.8,34.8,23.8,34.8 M23.8,34.8
	C23.8,34.8,23.8,34.8,23.8,34.8C23.8,34.8,23.8,34.8,23.8,34.8C23.8,34.8,23.8,34.8,23.8,34.8 M30.8,29.2
	C30.8,29.2,30.8,29.2,30.8,29.2C30.8,29.2,30.8,29.2,30.8,29.2 M30.8,29.1C30.8,29.1,30.9,29.1,30.8,29.1
	C30.9,29.1,30.8,29.1,30.8,29.1 M30.9,29C30.9,29,30.9,29,30.9,29C30.9,29,30.9,29,30.9,29 M30.9,29.1
	C30.9,29.1,30.9,29.1,30.9,29.1C30.9,29.1,30.9,29.1,30.9,29.1 M31,29C31,28.9,31,28.9,31,29C31,28.9,31,28.9,31,29 M31,28.9
	C31,28.9,31,28.9,31,28.9C31,28.9,31,28.9,31,28.9"/>
<path fill="#A7804C" d="M36.6,30.9C36.6,30.9,36.6,30.9,36.6,30.9c-0.8,0.2-1.6,0.4-2.3,0.6c-0.1,0-0.3,0.2-0.2,0.3
	c0,0,0,0.1,0.1,0.1c0,0,0.1,0,0.1,0c0.7-0.2,1.5-0.4,2.2-0.6c0.1,0,0.3-0.2,0.3-0.3C36.7,30.9,36.7,30.9,36.6,30.9 M36.7,30.9
	C36.7,30.9,36.7,30.9,36.7,30.9C36.7,30.9,36.7,30.9,36.7,30.9 M36.6,30.9C36.6,30.9,36.6,30.9,36.6,30.9
	C36.6,30.9,36.6,30.9,36.6,30.9C36.6,30.9,36.6,30.9,36.6,30.9 M34.3,31.6C34.3,31.6,34.3,31.6,34.3,31.6
	C34.3,31.6,34.3,31.6,34.3,31.6 M34.2,31.6C34.2,31.6,34.2,31.6,34.2,31.6C34.2,31.6,34.2,31.6,34.2,31.6 M34.2,31.7
	C34.1,31.7,34.1,31.7,34.2,31.7C34.1,31.7,34.1,31.7,34.2,31.7 M34.1,31.7C34.1,31.7,34.1,31.7,34.1,31.7
	C34.1,31.7,34.1,31.7,34.1,31.7 M34.1,31.8C34.1,31.8,34.1,31.8,34.1,31.8C34.1,31.8,34.1,31.8,34.1,31.8 M34.1,31.8
	C34.1,31.8,34.1,31.8,34.1,31.8C34.1,31.8,34.1,31.8,34.1,31.8 M34.1,31.9C34.1,31.9,34.1,31.9,34.1,31.9
	C34.1,31.9,34.1,31.9,34.1,31.9 M34.2,31.9C34.2,31.9,34.2,31.9,34.2,31.9C34.2,31.9,34.2,31.9,34.2,31.9
	C34.2,31.9,34.2,31.9,34.2,31.9 M36.6,31.1C36.6,31.1,36.6,31.1,36.6,31.1C36.6,31.1,36.6,31.1,36.6,31.1 M36.5,31.2
	C36.5,31.2,36.5,31.2,36.5,31.2C36.5,31.2,36.5,31.2,36.5,31.2 M36.5,31.2C36.5,31.2,36.5,31.2,36.5,31.2
	C36.5,31.2,36.5,31.2,36.5,31.2 M36.6,31.1C36.6,31.1,36.6,31.1,36.6,31.1C36.6,31.1,36.6,31.1,36.6,31.1 M36.7,31
	C36.7,31,36.7,31,36.7,31C36.7,31,36.7,31,36.7,31 M36.7,31C36.7,31,36.7,31,36.7,31C36.7,31,36.7,31,36.7,31"/>
<path fill="#A7804C" d="M40.2,14.9c0.9-0.1,1.6-0.1,2.5-0.2c1,0,1.7,0.1,2.5,0.6c0.6,0.5,1.5,1.7,1.8,2.7c0.8,2.2,1,5.5,0.8,6.9
	c-0.2,1-0.3,1.7-0.8,2.5c-0.6,0.8-0.6,1-2.1,1.6c-0.4,0.2-3,0.5-4.2,0.7c-0.5,0.1-1.5,0.2-2,0.2c-0.4,0.1-0.9-0.3-0.9-0.7
	c-0.2-1.2-0.3-2.1-0.5-3.5c-0.1-0.8-0.1-1-0.4-1.7c-0.3-0.7-1-1-1-1s0.4-0.4,0.6-0.8c0.3-0.6,0.2-1.4,0.2-1.8
	c-0.1-0.6-0.1-0.9-0.2-1.6c-0.1-0.9-0.3-1.8-0.3-2.8c0-0.6,0.3-0.9,0.9-0.9c0.9-0.1,1.5-0.2,2.4-0.3C39.5,15,40.2,14.9,40.2,14.9
	 M39.9,22.5c0.1,0.4,0.1,1.1,0.2,1.9c0.1,0.6,0.1,1.3,0.2,1.9c0.1,0.9,0.1,0.9,0.8,0.8c0.3-0.1,0.7-0.1,1-0.1
	c0.7-0.1,1.5-0.1,2.1-0.5c0.6-0.3,0.9-0.7,1.1-1.5c0.1-0.6,0-2.1-0.1-2.7c-0.2-1.8-0.3-2.5-0.8-3.6c0,0,0,0,0,0
	c-0.3-0.6-1.3-1-2-0.9c-1.1,0-1.7,0.2-2.6,0.3c-0.3,0-0.5,0.4-0.4,0.6C39.5,19.8,39.7,21,39.9,22.5"/>
<path fill="#A7804C" d="M35.4,23.9c0.4,0.2,0.7,0.6,0.9,1.1c0,0.2,0.4,0,0.4-0.2c-0.1-0.5-0.4-1-0.9-1.2
	C35.6,23.6,35.3,23.8,35.4,23.9"/>
<path fill="#A7804C" d="M44.1,19c-0.4-0.5-0.9-0.7-1.5-0.7c0,0,0,0-0.1,0c-0.6,0-1.1,0.1-1.7,0.2c-0.2,0-0.5,0.1-0.7,0.1
	c-0.1,0-0.3,0.2-0.3,0.3c0,0,0,0.1,0.1,0.1c0,0,0,0,0,0c0.2,0,0.4,0,0.7-0.1c0.5,0,0.9-0.1,1.4-0.1c0.1,0,0.2,0,0.4,0
	c0.6,0,1,0.2,1.3,0.6c0,0,0.1,0.1,0.1,0.1c0.1,0,0.3-0.1,0.3-0.2C44.1,19.1,44.1,19,44.1,19 M44.1,19C44.1,19,44.1,19.1,44.1,19
	C44.1,19.1,44.1,19,44.1,19c0-0.1-0.1-0.1-0.1-0.2C44,18.9,44,19,44.1,19 M44.1,19.1C44.1,19.1,44.1,19.1,44.1,19.1
	C44.1,19.1,44.1,19.1,44.1,19.1 M42.6,18.3C42.7,18.3,42.7,18.3,42.6,18.3C42.7,18.3,42.6,18.3,42.6,18.3
	C42.6,18.3,42.6,18.3,42.6,18.3 M43.9,18.8c0,0-0.1-0.1-0.1-0.1C43.8,18.7,43.8,18.8,43.9,18.8 M43.7,18.7c0,0-0.1-0.1-0.1-0.1
	C43.6,18.6,43.7,18.6,43.7,18.7 M43.5,18.5c0,0-0.1,0-0.1-0.1C43.5,18.5,43.5,18.5,43.5,18.5 M43.3,18.4c0,0-0.1,0-0.1,0
	C43.3,18.4,43.3,18.4,43.3,18.4 M43.1,18.4c0,0-0.1,0-0.1,0C43.1,18.4,43.1,18.4,43.1,18.4 M42.9,18.3c0,0-0.1,0-0.1,0
	C42.9,18.3,42.9,18.3,42.9,18.3 M42.5,18.6C42.5,18.6,42.5,18.6,42.5,18.6C42.5,18.6,42.5,18.6,42.5,18.6 M40,18.6
	C40,18.6,40,18.6,40,18.6C40,18.6,40,18.6,40,18.6 M40.1,18.6C40.1,18.6,40.1,18.6,40.1,18.6C40.1,18.6,40.1,18.6,40.1,18.6
	 M40,18.6C40,18.6,40,18.6,40,18.6C40,18.6,40,18.6,40,18.6 M39.9,18.7C39.9,18.7,39.9,18.7,39.9,18.7
	C39.9,18.7,39.9,18.7,39.9,18.7 M39.9,18.8C39.9,18.8,39.9,18.8,39.9,18.8C39.9,18.8,39.9,18.8,39.9,18.8 M39.9,18.8
	C39.9,18.8,39.9,18.8,39.9,18.8C39.9,18.8,39.9,18.8,39.9,18.8 M39.9,18.8C39.9,18.8,39.9,18.8,39.9,18.8
	C39.9,18.8,39.9,18.8,39.9,18.8 M40,18.9C40,18.9,40,18.9,40,18.9C40,18.9,40,18.9,40,18.9C40,18.9,40,18.9,40,18.9 M42,18.6
	c0.1,0,0.2,0,0.3,0C42.2,18.6,42.1,18.6,42,18.6 M43.5,19C43.5,19,43.5,19.1,43.5,19C43.5,19.1,43.5,19,43.5,19 M42.7,18.6
	C42.7,18.7,42.7,18.7,42.7,18.6C42.7,18.7,42.7,18.7,42.7,18.6 M42.9,18.7C42.9,18.7,43,18.7,42.9,18.7C43,18.7,42.9,18.7,42.9,18.7
	 M43.1,18.8C43.1,18.8,43.2,18.8,43.1,18.8C43.2,18.8,43.1,18.8,43.1,18.8 M43.3,18.9C43.3,18.9,43.3,18.9,43.3,18.9
	C43.3,18.9,43.3,18.9,43.3,18.9 M43.8,19.3C43.8,19.3,43.8,19.3,43.8,19.3C43.8,19.3,43.8,19.3,43.8,19.3
	C43.8,19.3,43.8,19.3,43.8,19.3 M43.7,19.3C43.7,19.3,43.7,19.3,43.7,19.3C43.7,19.3,43.7,19.3,43.7,19.3 M44,19.2
	C44,19.2,44,19.2,44,19.2C44,19.2,44,19.2,44,19.2 M43.8,19.3C43.8,19.3,43.9,19.3,43.8,19.3C43.9,19.3,43.8,19.3,43.8,19.3
	 M43.9,19.3C43.9,19.3,43.9,19.3,43.9,19.3C43.9,19.3,43.9,19.3,43.9,19.3 M44.1,19.1C44,19.2,44,19.2,44.1,19.1
	C44,19.2,44,19.2,44.1,19.1"/>
<path fill="#A7804C" d="M47.7,28.2c0-0.1-0.1-0.1-0.2-0.1c0,0,0,0,0,0c-0.1,0-0.3,0.1-0.3,0.2c-0.8,1.1-2.3,1.5-3.4,1.7
	c-1.2,0.2-2.4,0.3-3.5,0.4c-0.5,0-1,0.1-1.5,0.2c-0.1,0-0.4,0.2-0.4,0.4c0,0.1,0.1,0.1,0.2,0.1c0,0,0,0,0,0l3.1-0.3
	c0.2,0,0.3,0,0.5,0c0.7-0.1,1.4-0.1,2-0.3c1.7-0.3,2.9-1,3.6-2C47.8,28.3,47.8,28.2,47.7,28.2 M47.5,28.2
	C47.5,28.2,47.5,28.2,47.5,28.2C47.5,28.2,47.5,28.2,47.5,28.2C47.5,28.2,47.5,28.2,47.5,28.2 M47.5,28.2
	C47.4,28.2,47.4,28.2,47.5,28.2C47.4,28.2,47.4,28.2,47.5,28.2 M47.4,28.2C47.4,28.3,47.4,28.3,47.4,28.2
	C47.4,28.3,47.4,28.3,47.4,28.2 M47.3,28.3C47.3,28.3,47.3,28.3,47.3,28.3C47.3,28.3,47.3,28.3,47.3,28.3 M38.5,30.7
	C38.5,30.7,38.5,30.7,38.5,30.7C38.5,30.7,38.5,30.7,38.5,30.7 M38.7,30.7C38.7,30.7,38.6,30.7,38.7,30.7
	C38.6,30.7,38.7,30.7,38.7,30.7 M38.6,30.7C38.6,30.7,38.6,30.7,38.6,30.7C38.6,30.7,38.6,30.7,38.6,30.7 M38.5,30.8
	C38.5,30.8,38.5,30.8,38.5,30.8C38.5,30.8,38.5,30.8,38.5,30.8 M38.4,30.8C38.4,30.9,38.4,30.9,38.4,30.8
	C38.4,30.9,38.4,30.9,38.4,30.8 M38.4,30.9C38.4,30.9,38.4,30.9,38.4,30.9C38.4,30.9,38.4,30.9,38.4,30.9 M38.4,30.9
	C38.4,30.9,38.4,30.9,38.4,30.9C38.4,30.9,38.4,30.9,38.4,30.9 M38.5,30.9C38.5,30.9,38.5,30.9,38.5,30.9
	C38.5,30.9,38.5,30.9,38.5,30.9C38.5,30.9,38.5,30.9,38.5,30.9"/>
<path fill="#A7804C" d="M74.3,30.4c-2-0.4-4-1.5-4.3-3.7c-0.1-0.9,0-1.8,0.1-2.6c0-0.6,0.1-0.9-0.2-1.3c-0.2-0.3-0.5-0.6-0.5-0.6
	s0.4-0.1,0.7-0.4c0.4-0.3,0.6-1.1,0.6-1.3c0.1-0.6,0.3-1.3,0.5-1.9c0.2-0.9,0.9-1.6,1.6-2.1c0.9-0.5,1.5-0.7,2.5-0.8
	c1-0.1,2.1,0.1,2.9,0.4c2.2,0.9,2.9,2.2,3.1,3c0.4,1.1,0.3,2.3,0.2,3.5c0,0.3,0,1,0.2,1.4c0.2,0.4,0.3,0.4,0.5,0.6
	c-0.2,0.1-0.5,0.2-0.7,0.4c-0.2,0.1-0.6,0.6-0.7,1.4c-0.2,1-0.7,2.5-1.7,3.3C77.6,31,74.8,30.5,74.3,30.4 M78.5,24.3
	c0,0,0.2-0.8,0.2-1.1c0.1-0.7,0.2-1.8,0.2-2.5c0-0.9-0.9-1.9-1.9-2.3c-0.6-0.3-0.7-0.2-1.4-0.2c-1,0.2-1.4,0.5-1.8,1.3
	c-0.3,0.7-0.3,1.8-0.5,2.5c-0.2,0.9-0.3,1.9-0.6,2.8c-0.3,1.9,0.2,2.2,0.9,2.7c0.8,0.6,2,0.8,2.9,0.5c1-0.4,1.3-0.7,1.4-1.6
	C78.1,25.6,78.3,25.1,78.5,24.3"/>
<path fill="#A7804C" d="M68.7,22.8c0.3,0.3,0.5,0.7,0.5,1.2c0,0.2,0.4,0,0.4-0.2c0-0.5-0.2-0.9-0.6-1.3
	C68.9,22.4,68.5,22.7,68.7,22.8"/>
<path fill="#A7804C" d="M76,18.7C76,18.7,76,18.7,76,18.7c-0.6,0-1.1,0.3-1.4,0.7c-0.4,0.4-0.5,1-0.7,1.6c0,0.1,0,0.1,0,0.2
	c-0.4,1.5-0.6,3.2-0.9,4.8c0,0.1,0,0.1,0,0.1c0,0,0.1,0,0.1,0c0.1,0,0.3-0.1,0.4-0.2c0.2-1.3,0.4-2.6,0.6-3.8l0,0
	c0.1-0.6,0.2-1.2,0.4-1.7c0.2-0.8,0.6-1.2,1.2-1.2c0.1,0,0.3-0.2,0.3-0.3C76.2,18.8,76.2,18.8,76,18.7 M76.1,18.8
	C76.1,18.8,76.1,18.8,76.1,18.8C76.1,18.8,76.1,18.8,76.1,18.8 M74.6,19.4c0.3-0.4,0.8-0.6,1.4-0.6c0,0,0,0,0,0c0,0,0,0,0,0
	c0,0,0,0,0,0C75.5,18.8,75,19,74.6,19.4c0,0-0.1,0.1-0.1,0.1C74.6,19.5,74.6,19.5,74.6,19.4 M74.4,19.7c0,0.1-0.1,0.1-0.1,0.2
	C74.4,19.9,74.4,19.8,74.4,19.7 M73.5,23.6c-0.1,0.8-0.3,1.6-0.4,2.4C73.2,25.2,73.3,24.4,73.5,23.6 M73.1,26
	C73.1,26,73.1,26.1,73.1,26C73.1,26.1,73.1,26,73.1,26 M73.1,26.1C73.1,26.1,73.1,26.1,73.1,26.1C73.1,26.1,73.1,26.1,73.1,26.1
	 M73.1,26.1C73.2,26.1,73.2,26.1,73.1,26.1C73.2,26.1,73.2,26.1,73.1,26.1C73.2,26.1,73.2,26.1,73.1,26.1 M73.4,26
	C73.4,26.1,73.4,26.1,73.4,26C73.4,26.1,73.4,26.1,73.4,26 M73.3,26.1C73.3,26.1,73.3,26.1,73.3,26.1C73.3,26.1,73.3,26.1,73.3,26.1
	 M73.3,26.1C73.2,26.1,73.2,26.1,73.3,26.1C73.2,26.1,73.2,26.1,73.3,26.1 M73.4,26C73.4,26,73.4,26,73.4,26
	C73.4,26,73.4,26,73.4,26 M73.5,26C73.5,26,73.5,25.9,73.5,26C73.5,25.9,73.5,26,73.5,26 M75.9,19.1C75.9,19.1,75.9,19.1,75.9,19.1
	C75.9,19.1,75.9,19.1,75.9,19.1 M75.9,19.1C75.9,19.1,75.9,19.1,75.9,19.1C75.9,19.1,75.9,19.1,75.9,19.1 M76,19C76,19,76,19,76,19
	C76,19,76,19,76,19 M76.1,19C76.1,19,76.1,19,76.1,19C76.1,19,76.1,19,76.1,19 M76.1,18.9C76.1,18.9,76.1,18.9,76.1,18.9
	C76.1,18.9,76.1,18.9,76.1,18.9 M76.1,18.9C76.1,18.9,76.1,18.8,76.1,18.9C76.1,18.8,76.1,18.9,76.1,18.9"/>
<path fill="#A7804C" d="M82.4,25.2c0-0.1-0.1-0.1-0.1-0.1c-0.1,0-0.1,0-0.2,0.1c-0.4,0.2-0.6,0.6-0.8,1.2c-0.2,0.5-0.3,1-0.4,1.5
	c-0.1,0.2-0.1,0.4-0.2,0.7c0,0.1,0,0.1,0,0.1c0,0,0,0,0.1,0c0.1,0,0.3-0.1,0.4-0.2l0.2-0.6l0.3-1.1c0,0,0-0.1,0-0.1
	c0.1-0.4,0.2-0.9,0.6-1.1C82.4,25.4,82.4,25.3,82.4,25.2 M82.3,25.3C82.3,25.3,82.3,25.3,82.3,25.3C82.3,25.3,82.3,25.3,82.3,25.3
	 M82.3,25.2C82.3,25.2,82.3,25.2,82.3,25.2C82.3,25.2,82.3,25.2,82.3,25.2 M82.3,25.2C82.3,25.2,82.3,25.2,82.3,25.2
	C82.3,25.2,82.3,25.2,82.3,25.2 M82.2,25.2C82.2,25.2,82.2,25.2,82.2,25.2C82.2,25.2,82.2,25.2,82.2,25.2L82.2,25.2z M82.2,25.2
	C82.1,25.2,82.1,25.2,82.2,25.2C82.1,25.2,82.1,25.2,82.2,25.2 M80.7,28.5c0.1-0.2,0.1-0.4,0.2-0.5c0.1-0.4,0.2-0.7,0.3-1.1
	c-0.1,0.4-0.2,0.7-0.3,1.1C80.8,28.2,80.7,28.3,80.7,28.5C80.7,28.5,80.7,28.6,80.7,28.5C80.7,28.6,80.7,28.5,80.7,28.5 M80.7,28.6
	C80.7,28.6,80.7,28.6,80.7,28.6C80.7,28.6,80.7,28.6,80.7,28.6 M80.7,28.6C80.7,28.6,80.7,28.6,80.7,28.6
	C80.7,28.6,80.7,28.6,80.7,28.6C80.7,28.6,80.7,28.6,80.7,28.6 M80.8,28.6C80.8,28.6,80.8,28.6,80.8,28.6
	C80.8,28.6,80.8,28.6,80.8,28.6 M81,28.5C81,28.5,81,28.5,81,28.5C81,28.5,81,28.5,81,28.5 M80.8,28.6
	C80.8,28.6,80.9,28.6,80.8,28.6C80.9,28.6,80.8,28.6,80.8,28.6 M80.9,28.6C80.9,28.6,80.9,28.5,80.9,28.6
	C80.9,28.5,80.9,28.6,80.9,28.6 M81,28.5C81,28.5,81,28.4,81,28.5C81,28.4,81,28.5,81,28.5 M82.2,25.5
	C82.2,25.4,82.3,25.4,82.2,25.5C82.3,25.4,82.2,25.4,82.2,25.5 M82.3,25.3C82.3,25.3,82.3,25.3,82.3,25.3
	C82.3,25.3,82.3,25.3,82.3,25.3 M82.3,25.4C82.3,25.4,82.3,25.4,82.3,25.4C82.3,25.4,82.3,25.4,82.3,25.4"/>
<path fill="#A7804C" d="M79.3,30.7c0-0.1-0.1-0.1-0.2-0.1c-0.1,0-0.2,0-0.2,0.1c-0.6,0.4-1.5,0.5-2.2,0.5c-0.2,0-0.5,0-0.7,0
	c-0.6,0-1.1-0.1-1.7-0.2c-1.1-0.2-2.8-0.7-3.8-1.9c0,0-0.1-0.1-0.1-0.1c-0.1,0-0.3,0.1-0.3,0.2c0,0.1,0,0.1,0,0.2
	c1.1,1.4,2.8,1.9,4.3,2.1c0.5,0.1,0.9,0.1,1.4,0.1c0.4,0,0.8,0,1.2,0c1-0.1,1.7-0.3,2.2-0.7C79.3,30.8,79.3,30.8,79.3,30.7
	 M79.2,30.7C79.2,30.7,79.2,30.7,79.2,30.7C79.2,30.7,79.2,30.7,79.2,30.7 M79.1,30.7C79.1,30.7,79.1,30.7,79.1,30.7
	C79.1,30.7,79.1,30.7,79.1,30.7C79.1,30.7,79.1,30.7,79.1,30.7 M79.2,30.7C79.2,30.7,79.2,30.7,79.2,30.7
	C79.2,30.7,79.2,30.7,79.2,30.7 M79.1,30.7C79.1,30.7,79.1,30.7,79.1,30.7C79.1,30.7,79.1,30.7,79.1,30.7 M79,30.7
	C79,30.7,79,30.7,79,30.7C79,30.7,79,30.7,79,30.7 M78.4,31c-0.3,0.1-0.6,0.2-0.9,0.2C77.8,31.2,78.1,31.1,78.4,31 M76.7,31.3
	c-0.2,0-0.4,0-0.7,0C76.2,31.3,76.4,31.3,76.7,31.3 M75.5,31.2c0,0-0.1,0-0.1,0C75.4,31.2,75.4,31.2,75.5,31.2 M74.9,31.2
	c0,0-0.1,0-0.1,0C74.8,31.2,74.9,31.2,74.9,31.2 M74.2,31.1c-0.2,0-0.4-0.1-0.5-0.1C73.9,31,74.1,31,74.2,31.1 M72.4,30.5
	c0.2,0.1,0.3,0.1,0.5,0.2C72.7,30.7,72.6,30.6,72.4,30.5c-0.2-0.1-0.3-0.1-0.5-0.2C72.1,30.4,72.2,30.5,72.4,30.5 M70.4,29.1
	C70.4,29.1,70.4,29.1,70.4,29.1C70.4,29.1,70.4,29.1,70.4,29.1C70.4,29.1,70.4,29.1,70.4,29.1 M70.5,29.1
	C70.4,29.1,70.4,29.1,70.5,29.1C70.4,29.1,70.4,29.1,70.5,29.1 M70.3,29.1C70.3,29.1,70.3,29.1,70.3,29.1
	C70.3,29.1,70.3,29.1,70.3,29.1 M70.2,29.1C70.2,29.1,70.1,29.1,70.2,29.1C70.1,29.1,70.2,29.1,70.2,29.1 M70.3,29.1
	C70.2,29.1,70.2,29.1,70.3,29.1C70.2,29.1,70.2,29.1,70.3,29.1 M70.1,29.2C70.1,29.2,70.1,29.2,70.1,29.2
	C70.1,29.2,70.1,29.2,70.1,29.2 M70.1,29.2C70.1,29.2,70.1,29.2,70.1,29.2C70.1,29.2,70.1,29.2,70.1,29.2 M70.1,29.3
	C70.1,29.3,70.1,29.3,70.1,29.3C70.1,29.3,70.1,29.3,70.1,29.3 M74.3,31.4c0.2,0,0.4,0.1,0.6,0.1C74.7,31.5,74.5,31.5,74.3,31.4
	 M75,31.5c0.2,0,0.4,0,0.6,0C75.4,31.6,75.2,31.5,75,31.5 M75.6,31.6c0.1,0,0.3,0,0.4,0C76,31.6,75.8,31.6,75.6,31.6
	C75.7,31.6,75.7,31.6,75.6,31.6 M76.3,31.6c0.2,0,0.4,0,0.6,0C76.7,31.6,76.5,31.6,76.3,31.6 M79.2,30.8
	C79.2,30.8,79.2,30.8,79.2,30.8C79.2,30.8,79.2,30.8,79.2,30.8 M79.2,30.8C79.2,30.8,79.2,30.8,79.2,30.8
	C79.2,30.8,79.2,30.8,79.2,30.8 M79.2,30.8C79.2,30.8,79.2,30.8,79.2,30.8C79.2,30.8,79.2,30.8,79.2,30.8 M79.2,30.7
	C79.2,30.7,79.2,30.7,79.2,30.7C79.2,30.7,79.2,30.7,79.2,30.7"/>
<path fill="#A7804C" d="M88,24c0.4,0,1.1-0.5,1.5-0.9c1.2-0.9,2.2-1.8,3.5-2.7c0.2-0.2,0.5-0.5,0.9-0.4c0.6,0.2,1,0.3,1.5,0.5
	c0.4,0.2,0.4,0.6,0.1,1c-0.5,0.5-1.1,0.9-1.6,1.3c-1.6,1.3-3.4,2.7-5.1,4c-0.6,0.5-0.7,1-1,1.6c-0.5,1.3-0.8,2.5-1.3,3.8
	c-0.2,0.7-0.3,0.8-1,0.5c-0.4-0.1-1-0.3-1.3-0.5c-0.2-0.1-0.3-0.3-0.3-0.5c0,0,0.2-0.5,0.2-0.6c0.6-1.7,0.7-2,1.3-3.7
	c0.1-0.6,0.3-1.4,0.2-1.9c-0.6-3-1.1-5.4-1.9-8.2c0-0.1-0.1-0.2-0.1-0.3c0-0.3,0.2-0.5,0.4-0.4c0.7,0.1,1.4,0.4,2.1,0.6
	c0.4,0.3,0.5,1,0.6,1.3c0.5,1.5,0.6,2.7,1.1,4.3C87.8,23.4,87.8,23.9,88,24"/>
<path fill="#A7804C" d="M95.9,22.5c0-0.1-0.1-0.1-0.2-0.1c-0.1,0-0.2,0-0.3,0.1c-0.5,0.4-0.9,0.8-1.4,1.1c-1.5,1.2-3,2.4-4.5,3.6
	c-0.1,0.1-0.1,0.1-0.2,0.2c-0.3,0.2-0.6,0.5-0.8,0.8c-0.2,0.4-0.4,0.9-0.5,1.3l-0.3,0.9c-0.3,0.9-0.6,1.8-0.9,2.8c0,0.1,0,0.1,0,0.2
	c0,0,0.1,0.1,0.1,0.1c0.1,0,0.4-0.1,0.4-0.3c0.2-0.6,0.4-1.2,0.6-1.8c0.2-0.6,0.4-1.1,0.6-1.7l0-0.1c0.1-0.4,0.3-0.8,0.5-1.2
	c0.2-0.3,0.5-0.5,0.8-0.8c0.1-0.1,0.3-0.2,0.4-0.3c0.8-0.7,1.7-1.3,2.5-1.9c1-0.8,2.1-1.7,3.1-2.5C95.9,22.6,95.9,22.5,95.9,22.5
	 M95.8,22.5C95.8,22.5,95.7,22.5,95.8,22.5C95.7,22.5,95.8,22.5,95.8,22.5 M95.7,22.5C95.7,22.5,95.7,22.5,95.7,22.5
	C95.7,22.5,95.7,22.5,95.7,22.5 M95.7,22.5C95.7,22.5,95.7,22.5,95.7,22.5C95.7,22.5,95.7,22.5,95.7,22.5
	C95.7,22.5,95.7,22.5,95.7,22.5 M95.5,22.5L95.5,22.5c-0.5,0.4-1,0.8-1.5,1.2C94.5,23.3,95,22.9,95.5,22.5 M95.6,22.5
	C95.6,22.5,95.6,22.5,95.6,22.5C95.6,22.5,95.6,22.5,95.6,22.5 M88.5,28.2c0-0.1,0.1-0.1,0.1-0.2c0.1-0.1,0.2-0.2,0.2-0.3
	c-0.1,0.1-0.2,0.2-0.2,0.3C88.6,28.1,88.5,28.1,88.5,28.2c-0.1,0.2-0.2,0.4-0.3,0.6C88.3,28.6,88.4,28.4,88.5,28.2 M86.7,33
	C86.7,33.1,86.7,33.1,86.7,33C86.7,33.1,86.7,33.1,86.7,33 M86.7,33.1C86.7,33.1,86.7,33.1,86.7,33.1C86.7,33.1,86.7,33.1,86.7,33.1
	 M86.7,33.1C86.8,33.1,86.8,33.1,86.7,33.1C86.8,33.1,86.8,33.1,86.7,33.1C86.8,33.1,86.8,33.1,86.7,33.1 M87,33.1
	C87,33,87.1,33,87,33.1C87.1,33,87,33,87,33.1 M86.8,33.1C86.8,33.1,86.8,33.1,86.8,33.1C86.8,33.1,86.8,33.1,86.8,33.1 M86.9,33.1
	C86.9,33.1,86.9,33.1,86.9,33.1C86.9,33.1,86.9,33.1,86.9,33.1 M87,33.1C87,33.1,87,33.1,87,33.1C87,33.1,87,33.1,87,33.1
	 M88.3,29.5c-0.2,0.6-0.4,1.2-0.6,1.7c-0.2,0.6-0.4,1.2-0.6,1.7c0,0,0,0,0,0c0,0,0,0,0,0c0.2-0.6,0.4-1.2,0.6-1.7
	C87.9,30.6,88.1,30.1,88.3,29.5c0-0.1,0.1-0.2,0.1-0.3C88.4,29.3,88.3,29.4,88.3,29.5 M88.9,28.2c-0.1,0.2-0.2,0.4-0.3,0.7
	C88.6,28.6,88.7,28.4,88.9,28.2c0-0.1,0.1-0.1,0.1-0.2C88.9,28,88.9,28.1,88.9,28.2 M90.1,27.1c1.4-1.1,2.8-2.2,4.2-3.3
	C92.9,24.9,91.5,26,90.1,27.1 M95.7,22.7C95.7,22.6,95.7,22.6,95.7,22.7C95.7,22.6,95.7,22.6,95.7,22.7 M95.8,22.6
	C95.8,22.6,95.8,22.6,95.8,22.6C95.8,22.6,95.8,22.6,95.8,22.6 M95.8,22.5C95.8,22.5,95.8,22.5,95.8,22.5
	C95.8,22.5,95.8,22.5,95.8,22.5"/>
<path fill="#A7804C" d="M85.9,33.6c-0.7-0.2-1.4-0.4-2-0.7c0,0,0,0-0.1,0c-0.1,0-0.3,0.1-0.3,0.3c0,0.1,0,0.1,0.1,0.2
	c0.7,0.3,1.3,0.5,2,0.7c0,0,0,0,0,0c0.1,0,0.3-0.2,0.4-0.3C86,33.7,86,33.7,85.9,33.6 M86,33.7C86,33.7,86,33.7,86,33.7
	C86,33.7,86,33.7,86,33.7 M83.8,33C83.8,33,83.8,33,83.8,33C83.8,33,83.8,33,83.8,33C83.8,33,83.8,33,83.8,33 M83.8,33
	C83.8,33,83.8,33,83.8,33C83.8,33,83.8,33,83.8,33 M83.7,33C83.7,33,83.7,33,83.7,33C83.7,33,83.7,33,83.7,33 M83.7,33.1
	C83.7,33.1,83.7,33.1,83.7,33.1C83.7,33.1,83.7,33.1,83.7,33.1 M83.6,33.1C83.6,33.1,83.6,33.1,83.6,33.1
	C83.6,33.1,83.6,33.1,83.6,33.1 M83.6,33.2C83.6,33.2,83.6,33.2,83.6,33.2C83.6,33.2,83.6,33.2,83.6,33.2 M83.6,33.2
	C83.6,33.2,83.6,33.2,83.6,33.2C83.6,33.2,83.6,33.2,83.6,33.2 M83.6,33.3C83.6,33.3,83.6,33.3,83.6,33.3
	C83.6,33.3,83.6,33.3,83.6,33.3 M85.6,34c-0.2,0-0.3-0.1-0.5-0.1C85.3,33.9,85.5,33.9,85.6,34C85.6,34,85.7,34,85.6,34
	C85.7,34,85.7,34,85.6,34C85.7,34,85.6,34,85.6,34 M85.9,33.9C85.9,33.9,85.9,33.9,85.9,33.9C85.9,33.9,85.9,33.9,85.9,33.9
	 M85.8,33.9C85.8,33.9,85.8,33.9,85.8,33.9C85.8,33.9,85.8,33.9,85.8,33.9 M85.7,34C85.7,34,85.7,34,85.7,34
	C85.7,34,85.7,34,85.7,34 M85.9,33.9C85.9,33.9,85.9,33.9,85.9,33.9C85.9,33.9,85.9,33.9,85.9,33.9 M86,33.8
	C86,33.8,86,33.8,86,33.8C86,33.8,86,33.8,86,33.8 M86,33.8C86,33.8,86,33.7,86,33.8C86,33.7,86,33.8,86,33.8"/>
<path fill="#A7804C" d="M103.3,32.1c-0.7-0.9-0.9-1.2-1.2-1.6c0,0-0.9-1.1-2.2-2.1c-0.3-0.3-1-0.8-1.2-1.7c-0.2-0.4,0.2-1.6,1-1.9
	c0.9-0.2,1.4-0.1,2.5,0.7c0.5,0.4,1.1,0.7,1.3,1.3c0.3,0.6,0.2,1-0.2,1.7c-0.1,0.3-0.4,0.5-0.1,0.9c0.1,0.2,0.9,0.6,1.3,0.8
	c0.3,0.2,0.6,0,0.8-0.2c0.1-0.1,0.2-0.3,0.5-0.7c1-1.6,0.3-3-0.1-4c-0.4-0.7-2.1-2.3-4.1-2.9c-1.1-0.3-1.6-0.3-2.8,0
	c-1.3,0.3-2.1,1.1-2.7,2.6c0,0,0,0.3-0.1,0.4c-0.2,1,0,2.9,1.2,3.9c0.4,0.3,0.7,0.6,0.9,0.8c0.6,0.5,1.2,1,1.5,1.4
	c0.6,0.6,0.7,0.9,0.5,1.8c-0.4,0.9-0.8,1.5-1.7,1.4c-1.5-0.2-2.7-1.2-3.1-2.2c-0.3-0.6-0.2-1,0.4-2.1c0.3-0.3,0.3-0.7,0-0.9
	c-0.3-0.3-1.1-0.7-1.4-0.9c-0.3-0.2-0.5-0.1-0.8,0.2c-0.8,1-1,1.5-1.1,2.5c-0.2,1.6,0.3,2.4,1,3.2c0.6,0.6,2.2,2.1,4.5,2.7
	c1.1,0.3,1.8,0.3,3.2-0.6c0.4-0.3,0.9-0.9,1.4-1.6c0,0,0.5-0.8,1.1-1.2c0.6-0.4,1.2-0.4,1.2-0.4S103.7,32.7,103.3,32.1"/>
<path fill="#A7804C" d="M99.7,26.1c0.5-0.4,1.2,0,1.7,0.3c0.4,0.3,0.8,0.6,1.1,1c0.1,0.1,0.5-0.1,0.3-0.3c-0.8-0.8-2.1-2.1-3.3-1.2
	C99.2,26.1,99.5,26.2,99.7,26.1"/>
<path fill="#A7804C" d="M100.7,37.7c0-0.1-0.1-0.1-0.2-0.1c-0.1,0-0.2,0-0.2,0.1c-0.4,0.3-0.9,0.4-1.5,0.4c-0.3,0-0.6-0.1-0.9-0.1
	c-0.7-0.2-1.4-0.4-2.2-0.8c-1.5-0.7-2.6-1.6-3.3-2.6c0,0-0.1-0.1-0.1-0.1c-0.1,0-0.3,0.1-0.3,0.2c0,0.1,0,0.1,0,0.2
	c0.8,1.2,2.1,2.2,3.9,2.9c0.8,0.4,1.8,0.7,2.8,0.8c0.8,0,1.4-0.2,2-0.6C100.7,37.8,100.8,37.8,100.7,37.7 M100.7,37.7
	C100.7,37.7,100.7,37.7,100.7,37.7C100.7,37.7,100.7,37.7,100.7,37.7 M100.6,37.7C100.6,37.7,100.6,37.7,100.6,37.7
	C100.6,37.7,100.6,37.7,100.6,37.7 M100.6,37.7C100.6,37.7,100.6,37.7,100.6,37.7C100.6,37.7,100.6,37.7,100.6,37.7
	C100.6,37.7,100.6,37.7,100.6,37.7 M100.4,37.7c0,0-0.1,0.1-0.2,0.1C100.3,37.8,100.3,37.8,100.4,37.7 M100.5,37.7
	C100.5,37.7,100.5,37.7,100.5,37.7C100.5,37.7,100.5,37.7,100.5,37.7 M98.9,38.2c0.1,0,0.1,0,0.2,0C99,38.2,99,38.2,98.9,38.2
	 M100.2,37.9c0,0-0.1,0-0.1,0.1C100.1,37.9,100.1,37.9,100.2,37.9 M100,38c0,0-0.1,0-0.1,0.1C99.9,38,100,38,100,38 M99.8,38
	c-0.1,0-0.1,0-0.2,0.1C99.7,38.1,99.8,38.1,99.8,38 M99.6,38.1c0,0-0.1,0-0.1,0C99.5,38.1,99.6,38.1,99.6,38.1 M99.4,38.1
	c0,0-0.1,0-0.1,0C99.4,38.2,99.4,38.1,99.4,38.1 M99.3,38.2c0,0-0.1,0-0.1,0C99.2,38.2,99.2,38.2,99.3,38.2 M95.8,37.2
	c0.2,0.1,0.4,0.2,0.5,0.2c0.5,0.2,1.1,0.4,1.7,0.6c0.1,0,0.1,0,0.2,0c-0.1,0-0.1,0-0.2,0c-0.6-0.1-1.1-0.3-1.7-0.6
	C96.1,37.4,96,37.3,95.8,37.2c-0.2-0.1-0.3-0.2-0.5-0.2C95.4,37.1,95.6,37.1,95.8,37.2 M98.8,38.2c-0.1,0-0.1,0-0.2,0
	C98.7,38.2,98.8,38.2,98.8,38.2 M98.6,38.1c-0.1,0-0.1,0-0.2,0C98.5,38.1,98.6,38.1,98.6,38.1 M98.4,38.1c-0.1,0-0.1,0-0.2,0
	C98.3,38.1,98.3,38.1,98.4,38.1 M98,38.4C97.9,38.4,97.9,38.4,98,38.4C97.9,38.4,97.9,38.4,98,38.4 M97.6,38.3c0,0-0.1,0-0.1,0
	C97.5,38.3,97.6,38.3,97.6,38.3 M97.3,38.2c0,0-0.1,0-0.1,0C97.2,38.2,97.2,38.2,97.3,38.2 M97,38.1c0,0-0.1,0-0.1,0
	C96.9,38.1,96.9,38.1,97,38.1 M96.6,38c0,0-0.1,0-0.1,0C96.5,37.9,96.6,38,96.6,38 M96.3,37.8C96.3,37.8,96.2,37.8,96.3,37.8
	C96.2,37.8,96.3,37.8,96.3,37.8 M93.1,35.4c-0.3-0.3-0.5-0.5-0.7-0.8c0,0,0,0,0,0c0,0,0,0,0,0C92.6,34.9,92.8,35.1,93.1,35.4
	 M92.3,34.5C92.3,34.5,92.3,34.5,92.3,34.5C92.3,34.5,92.3,34.5,92.3,34.5C92.3,34.5,92.3,34.5,92.3,34.5 M92.1,34.6
	C92.1,34.6,92.1,34.6,92.1,34.6C92.1,34.6,92.1,34.6,92.1,34.6 M92.3,34.5C92.3,34.5,92.3,34.5,92.3,34.5
	C92.3,34.5,92.3,34.5,92.3,34.5 M92.2,34.5C92.2,34.5,92.2,34.5,92.2,34.5C92.2,34.5,92.2,34.5,92.2,34.5 M92.1,34.6
	C92.1,34.6,92,34.6,92.1,34.6C92,34.6,92.1,34.6,92.1,34.6 M92,34.7C92,34.7,92,34.7,92,34.7C92,34.7,92,34.7,92,34.7 M92,34.7
	C92,34.7,92,34.8,92,34.7C92,34.8,92,34.7,92,34.7 M98.3,38.4C98.3,38.4,98.3,38.4,98.3,38.4C98.3,38.4,98.3,38.4,98.3,38.4
	 M98.6,38.5c0.1,0,0.1,0,0.2,0C98.8,38.5,98.7,38.5,98.6,38.5C98.6,38.5,98.6,38.5,98.6,38.5 M100.6,37.9c-0.1,0.1-0.2,0.1-0.2,0.2
	C100.4,38,100.5,38,100.6,37.9C100.6,37.9,100.6,37.9,100.6,37.9C100.6,37.9,100.6,37.9,100.6,37.9 M98.9,38.5c0.1,0,0.2,0,0.3,0
	C99.1,38.5,99,38.5,98.9,38.5 M99.2,38.4c0.1,0,0.1,0,0.2,0C99.4,38.4,99.3,38.4,99.2,38.4 M99.6,38.4c0.1,0,0.1,0,0.2,0
	C99.7,38.4,99.6,38.4,99.6,38.4 M99.8,38.3c0.1,0,0.1,0,0.2-0.1C99.9,38.3,99.9,38.3,99.8,38.3 M100.1,38.2c0.1,0,0.1-0.1,0.2-0.1
	C100.2,38.1,100.2,38.2,100.1,38.2 M100.7,37.8C100.7,37.8,100.7,37.8,100.7,37.8C100.7,37.8,100.7,37.8,100.7,37.8 M100.7,37.7
	C100.7,37.7,100.7,37.8,100.7,37.7C100.7,37.8,100.7,37.7,100.7,37.7"/>
<path fill="#A7804C" d="M98.9,31.9c-0.6-0.5-1.2-1-1.7-1.6c-0.1-0.1-0.5,0.1-0.4,0.2c0.4,0.5,0.9,0.9,1.4,1.3c0.5,0.4,1.1,1,0.7,1.6
	c-0.1,0.2,0.3,0.1,0.4-0.1C99.6,32.8,99.3,32.3,98.9,31.9"/>
<path fill="#A7804C" d="M58.6,29.3c-0.8,0.1-1.2-0.2-1.2-0.9c0-0.6-0.1-3.2-0.1-4.1c0-0.5-0.2-1.2-0.4-1.5c-0.1-0.2-0.3-0.3-0.6-0.6
	c0.3-0.2,0.4-0.3,0.7-0.7c0.2-0.3,0.4-1.1,0.4-1.8c0-1.1-0.1-2.3,0-3.3c-0.1-1.3-0.1-1.8,1.5-1.8c1.2,0,3.1-0.1,4-0.1
	c1,0,1.8,0.2,2.5,0.6c0.8,0.4,1.2,0.8,1.6,1.7c0.2,0.5,0.7,1.4,0.3,3c-0.1,0.5-0.4,1.1-0.9,1.6c-0.4,0.4-0.4,0.4,0,0.8
	c1.2,0.8,1.5,2,1.6,3.4c0,1.5-1.5,3.5-3.3,3.6C63.7,29.2,59.2,29.3,58.6,29.3 M63.5,26.6c0.6-0.1,1.2-0.6,1.2-1.4
	c0-0.8-0.3-1.5-1.2-1.6c-1.1-0.1-1.6,0-2.7,0c-0.4,0-0.5,0.2-0.5,0.6c0,0.4,0,1.4,0.1,2c0,0.2,0.1,0.3,0.2,0.3
	C60.8,26.8,63,26.7,63.5,26.6 M63.1,20.2c0.7-0.1,1.2-0.6,1.2-1.4c0-0.8-0.2-1.3-1-1.5c-1-0.2-1.6-0.1-2.7,0c-0.3,0-0.5,0-0.5,0.5
	c0,0.4,0,1.5,0,2.2c0,0.2,0.1,0.3,0.2,0.3C61,20.5,62.4,20.2,63.1,20.2"/>
<path fill="#A7804C" d="M63.9,18c-0.4-0.2-1-0.4-1.6-0.4c-0.6,0-1.1,0.1-1.5,0.2c-0.1,0-0.3,0.2-0.3,0.3c0,0,0,0.1,0.1,0.1
	c0,0,0,0,0.1,0c0.5-0.1,1-0.1,1.4-0.1c0.6,0,1.1,0.1,1.4,0.3c0,0,0.1,0,0.1,0c0.1,0,0.3-0.1,0.4-0.3C63.9,18.1,63.9,18.1,63.9,18
	 M63.9,18.1C63.9,18.1,63.9,18.1,63.9,18.1C63.9,18.1,63.9,18.1,63.9,18.1 M63.7,18C63.6,18,63.6,18,63.7,18
	C63.6,18,63.6,18,63.7,18 M63.5,17.9C63.5,17.9,63.4,17.9,63.5,17.9C63.4,17.9,63.5,17.9,63.5,17.9 M63.3,17.9
	C63.3,17.8,63.2,17.8,63.3,17.9C63.2,17.8,63.3,17.8,63.3,17.9 M63.1,17.8C63.1,17.8,63,17.8,63.1,17.8C63,17.8,63.1,17.8,63.1,17.8
	 M62.9,17.8C62.9,17.8,62.8,17.8,62.9,17.8C62.8,17.8,62.9,17.8,62.9,17.8 M62.7,17.7C62.7,17.7,62.6,17.7,62.7,17.7
	C62.6,17.7,62.7,17.7,62.7,17.7 M62.5,17.7C62.5,17.7,62.4,17.7,62.5,17.7C62.4,17.7,62.5,17.7,62.5,17.7 M62.3,17.7
	C62.3,17.7,62.2,17.7,62.3,17.7C62.2,17.7,62.2,17.7,62.3,17.7C62.3,17.7,62.3,17.7,62.3,17.7 M62.2,18c0,0-0.1,0-0.1,0
	C62.1,18,62.2,18,62.2,18 M60.8,17.9C60.7,17.9,60.7,17.9,60.8,17.9C60.7,17.9,60.7,17.9,60.8,17.9 M61.9,17.7
	C61.9,17.7,61.9,17.7,61.9,17.7C61.9,17.7,61.9,17.7,61.9,17.7 M61.5,17.8C61.5,17.8,61.5,17.8,61.5,17.8
	C61.5,17.8,61.5,17.8,61.5,17.8 M61.1,17.8C61.1,17.8,61.1,17.8,61.1,17.8C61.1,17.8,61.1,17.8,61.1,17.8 M60.7,17.9
	C60.7,17.9,60.6,17.9,60.7,17.9C60.6,17.9,60.7,17.9,60.7,17.9 M60.6,18C60.6,18,60.6,18,60.6,18C60.6,18,60.6,18,60.6,18 M60.6,18
	C60.6,18,60.6,18,60.6,18C60.6,18,60.6,18,60.6,18 M60.5,18.1C60.5,18.1,60.5,18.1,60.5,18.1C60.5,18.1,60.5,18.1,60.5,18.1
	 M60.5,18.1C60.5,18.1,60.5,18.1,60.5,18.1C60.5,18.1,60.5,18.1,60.5,18.1 M60.6,18.2C60.6,18.2,60.6,18.2,60.6,18.2
	C60.6,18.2,60.6,18.2,60.6,18.2 M60.7,18.2C60.7,18.2,60.6,18.2,60.7,18.2C60.6,18.2,60.6,18.2,60.7,18.2
	C60.6,18.2,60.6,18.2,60.7,18.2c0.1,0,0.2,0,0.3-0.1C60.9,18.1,60.8,18.2,60.7,18.2 M62,18c-0.1,0-0.2,0-0.3,0
	C61.8,18,61.9,18,62,18 M61.7,18c-0.1,0-0.2,0-0.3,0C61.5,18.1,61.6,18.1,61.7,18 M61.3,18.1c-0.1,0-0.2,0-0.3,0
	C61.1,18.1,61.2,18.1,61.3,18.1 M63.4,18.3c0.1,0,0.1,0.1,0.2,0.1C63.5,18.3,63.4,18.3,63.4,18.3 M62.3,18c0,0,0.1,0,0.1,0
	C62.3,18,62.3,18,62.3,18 M62.5,18.1c0,0,0.1,0,0.1,0C62.5,18.1,62.5,18.1,62.5,18.1 M62.7,18.1c0,0,0.1,0,0.1,0
	C62.7,18.1,62.7,18.1,62.7,18.1 M62.8,18.1c0,0,0.1,0,0.1,0C62.9,18.1,62.9,18.1,62.8,18.1 M63,18.2c0,0,0.1,0,0.1,0
	C63.1,18.2,63,18.2,63,18.2 M63.2,18.2c0,0,0.1,0,0.1,0C63.3,18.2,63.2,18.2,63.2,18.2 M63.6,18.4C63.6,18.4,63.6,18.4,63.6,18.4
	C63.6,18.4,63.6,18.4,63.6,18.4L63.6,18.4 M63.7,18.4C63.7,18.4,63.7,18.3,63.7,18.4C63.7,18.3,63.7,18.4,63.7,18.4 M63.7,18.3
	C63.8,18.3,63.8,18.3,63.7,18.3C63.8,18.3,63.8,18.3,63.7,18.3 M63.8,18.3C63.8,18.3,63.8,18.3,63.8,18.3
	C63.8,18.3,63.8,18.3,63.8,18.3 M63.9,18.2C63.9,18.2,63.9,18.1,63.9,18.2C63.9,18.1,63.9,18.2,63.9,18.2 M63.8,18.2
	C63.9,18.2,63.9,18.2,63.8,18.2C63.9,18.2,63.9,18.2,63.8,18.2"/>
<path fill="#A7804C" d="M63.9,24.5c-0.3-0.3-0.7-0.4-1.1-0.4h0c-0.4,0-0.9,0-1.3,0c-0.2,0-0.4,0-0.6,0c-0.1,0-0.3,0.2-0.3,0.3
	c0,0,0,0.1,0.1,0.1c0,0,0,0,0,0l1.6-0.1c0,0,0.1,0,0.1,0c0.1,0,0.2,0,0.3,0c0.3,0,0.6,0,0.8,0.3c0,0,0.1,0.1,0.1,0.1
	c0.1,0,0.3-0.1,0.3-0.2C63.9,24.6,63.9,24.5,63.9,24.5 M63.9,24.5C63.9,24.5,63.9,24.5,63.9,24.5c-0.1-0.1-0.1-0.1-0.1-0.2
	C63.8,24.4,63.8,24.5,63.9,24.5C63.9,24.5,63.9,24.5,63.9,24.5 M63.9,24.6C63.9,24.6,63.9,24.6,63.9,24.6
	C63.9,24.6,63.9,24.6,63.9,24.6 M62.8,24.1C62.8,24.1,62.8,24.1,62.8,24.1C62.8,24.1,62.8,24.1,62.8,24.1
	C62.8,24.1,62.8,24.1,62.8,24.1 M63.7,24.4C63.7,24.3,63.6,24.3,63.7,24.4C63.6,24.3,63.7,24.3,63.7,24.4 M63.6,24.3
	C63.5,24.3,63.5,24.2,63.6,24.3C63.5,24.2,63.5,24.3,63.6,24.3 M63.4,24.2C63.4,24.2,63.4,24.2,63.4,24.2
	C63.4,24.2,63.4,24.2,63.4,24.2 M63.3,24.2C63.3,24.2,63.2,24.2,63.3,24.2C63.2,24.2,63.3,24.2,63.3,24.2 M63.1,24.1
	C63.1,24.1,63.1,24.1,63.1,24.1C63.1,24.1,63.1,24.1,63.1,24.1 M63,24.1C63,24.1,62.9,24.1,63,24.1C62.9,24.1,63,24.1,63,24.1
	 M62.7,24.4C62.7,24.4,62.7,24.4,62.7,24.4C62.7,24.4,62.7,24.4,62.7,24.4 M60.7,24.2C60.7,24.2,60.7,24.2,60.7,24.2
	C60.7,24.2,60.7,24.2,60.7,24.2 M60.7,24.2C60.7,24.2,60.7,24.2,60.7,24.2C60.7,24.2,60.7,24.2,60.7,24.2 M60.6,24.3
	C60.6,24.3,60.6,24.3,60.6,24.3C60.6,24.3,60.6,24.3,60.6,24.3 M60.6,24.4C60.6,24.4,60.6,24.4,60.6,24.4
	C60.6,24.4,60.6,24.4,60.6,24.4 M60.5,24.4C60.5,24.4,60.5,24.4,60.5,24.4C60.5,24.4,60.5,24.4,60.5,24.4 M60.5,24.5
	C60.5,24.5,60.5,24.5,60.5,24.5C60.5,24.5,60.5,24.5,60.5,24.5 M60.6,24.5C60.6,24.5,60.6,24.5,60.6,24.5
	C60.6,24.5,60.6,24.5,60.6,24.5 M60.6,24.5C60.6,24.5,60.6,24.5,60.6,24.5C60.6,24.5,60.6,24.5,60.6,24.5
	C60.6,24.5,60.6,24.5,60.6,24.5 M62.6,24.4c-0.1,0-0.1,0-0.2,0C62.5,24.4,62.5,24.4,62.6,24.4 M62.9,24.4
	C62.9,24.4,62.9,24.4,62.9,24.4C62.9,24.4,62.9,24.4,62.9,24.4 M63,24.5C63,24.5,63,24.5,63,24.5C63,24.5,63,24.5,63,24.5
	 M63.2,24.5C63.2,24.5,63.2,24.5,63.2,24.5C63.2,24.5,63.2,24.5,63.2,24.5 M63.3,24.6C63.3,24.6,63.3,24.6,63.3,24.6
	C63.3,24.6,63.3,24.6,63.3,24.6 M63.5,24.8C63.6,24.8,63.6,24.8,63.5,24.8C63.6,24.8,63.6,24.8,63.5,24.8
	C63.6,24.8,63.5,24.8,63.5,24.8 M63.5,24.7C63.5,24.7,63.5,24.8,63.5,24.7C63.5,24.8,63.5,24.7,63.5,24.7 M63.7,24.7
	C63.8,24.7,63.8,24.7,63.7,24.7C63.8,24.7,63.8,24.7,63.7,24.7 M63.6,24.8C63.6,24.8,63.6,24.8,63.6,24.8
	C63.6,24.8,63.6,24.8,63.6,24.8 M63.7,24.7C63.7,24.7,63.7,24.7,63.7,24.7C63.7,24.7,63.7,24.7,63.7,24.7 M63.8,24.6
	C63.8,24.6,63.8,24.6,63.8,24.6C63.8,24.6,63.8,24.6,63.8,24.6"/>
<path fill="#A7804C" d="M66.9,29c0-0.1-0.1-0.1-0.2-0.1c-0.1,0-0.2,0-0.3,0.1c-0.8,0.7-2,0.8-3,0.8c-0.2,0-0.5,0-0.7,0
	c-0.8,0-1.5,0-2.2,0c-0.9,0-1.7,0-2.5,0c-0.2,0-0.4,0.2-0.4,0.4c0,0.1,0.1,0.2,0.2,0.2l0,0c0.6,0,1.3,0,2.1,0c0.7,0,1.4,0,2,0
	c0.3,0,0.7,0,1,0c0,0,0.1,0,0.1,0c1.1,0,2.6-0.1,3.7-1C66.9,29.2,66.9,29.1,66.9,29 M66.8,29.1C66.8,29.1,66.8,29,66.8,29.1
	C66.8,29,66.8,29.1,66.8,29.1 M66.8,29C66.8,29,66.7,29,66.8,29C66.7,29,66.8,29,66.8,29 M66.7,29C66.7,29,66.7,29,66.7,29
	C66.7,29,66.7,29,66.7,29C66.7,29,66.7,29,66.7,29 M66.6,29C66.6,29,66.6,29,66.6,29C66.6,29,66.6,29,66.6,29 M63.4,30.2
	c0,0-0.1,0-0.1,0C63.4,30.2,63.4,30.2,63.4,30.2 M63.4,29.9C63.5,29.9,63.5,29.9,63.4,29.9C63.5,29.9,63.5,29.9,63.4,29.9
	 M66.5,29.4c0,0-0.1,0.1-0.1,0.1C66.4,29.5,66.4,29.5,66.5,29.4 M66.3,29.6c0,0-0.1,0.1-0.1,0.1C66.2,29.6,66.2,29.6,66.3,29.6
	 M66,29.7c0,0-0.1,0-0.1,0.1C66,29.7,66,29.7,66,29.7 M65.8,29.8c0,0-0.1,0-0.1,0.1C65.7,29.8,65.8,29.8,65.8,29.8 M65.6,29.9
	c0,0-0.1,0-0.1,0C65.5,29.9,65.6,29.9,65.6,29.9 M65.4,30c0,0-0.1,0-0.1,0C65.3,30,65.3,30,65.4,30 M65.1,30c0,0-0.1,0-0.1,0
	C65.1,30.1,65.1,30,65.1,30 M64.9,30.1c0,0-0.1,0-0.1,0C64.8,30.1,64.9,30.1,64.9,30.1 M64.7,30.1c0,0-0.1,0-0.1,0
	C64.6,30.1,64.6,30.1,64.7,30.1 M64.4,30.2c0,0-0.1,0-0.1,0C64.3,30.2,64.4,30.2,64.4,30.2 M64.2,30.2c0,0-0.1,0-0.1,0
	C64.1,30.2,64.1,30.2,64.2,30.2 M63.9,30.2c0,0-0.1,0-0.1,0C63.8,30.2,63.9,30.2,63.9,30.2 M63.7,30.2c0,0-0.1,0-0.1,0
	C63.6,30.2,63.6,30.2,63.7,30.2 M63.7,29.9C63.7,29.9,63.7,29.9,63.7,29.9C63.7,29.9,63.7,29.9,63.7,29.9 M63.9,29.9
	C63.9,29.9,64,29.9,63.9,29.9C64,29.9,63.9,29.9,63.9,29.9 M64.2,29.9C64.2,29.9,64.2,29.9,64.2,29.9C64.2,29.9,64.2,29.9,64.2,29.9
	 M64.5,29.9C64.5,29.9,64.5,29.9,64.5,29.9C64.5,29.9,64.5,29.9,64.5,29.9 M64.7,29.9C64.7,29.9,64.7,29.8,64.7,29.9
	C64.7,29.8,64.7,29.9,64.7,29.9 M64.9,29.8C64.9,29.8,65,29.8,64.9,29.8C65,29.8,64.9,29.8,64.9,29.8 M65.1,29.8
	C65.2,29.8,65.2,29.8,65.1,29.8C65.2,29.8,65.2,29.8,65.1,29.8 M65.4,29.7C65.4,29.7,65.4,29.7,65.4,29.7
	C65.4,29.7,65.4,29.7,65.4,29.7 M65.7,29.6C65.7,29.6,65.7,29.6,65.7,29.6C65.7,29.6,65.7,29.6,65.7,29.6 M65.9,29.5
	C65.9,29.5,65.9,29.5,65.9,29.5C65.9,29.5,65.9,29.5,65.9,29.5 M66.1,29.4C66.1,29.4,66.1,29.4,66.1,29.4
	C66.1,29.4,66.1,29.4,66.1,29.4 M66.3,29.3C66.3,29.3,66.3,29.3,66.3,29.3C66.3,29.3,66.3,29.3,66.3,29.3 M63.4,29.9
	c-0.2,0-0.5,0-0.7,0c-0.4,0-0.8,0-1.1,0c0.4,0,0.8,0,1.1,0C62.9,29.9,63.2,29.9,63.4,29.9 M61.2,30.2c-0.3,0-0.7,0-1,0
	C60.6,30.2,60.9,30.2,61.2,30.2 M61.2,29.9c-0.3,0-0.5,0-0.8,0c0,0,0,0,0.1,0C60.7,29.9,61,29.9,61.2,29.9 M59.6,29.9
	c-0.1,0-0.3,0-0.4,0C59.4,29.9,59.5,29.9,59.6,29.9 M59.4,30.2c-0.1,0-0.3,0-0.4,0C59.2,30.2,59.3,30.2,59.4,30.2 M57.8,30
	C57.8,30,57.8,30,57.8,30C57.8,30,57.8,30,57.8,30 M58,30L58,30L58,30z M57.9,30C57.9,30,57.9,30,57.9,30C57.9,30,57.9,30,57.9,30
	 M57.8,30.1C57.8,30.1,57.8,30.1,57.8,30.1C57.8,30.1,57.8,30.1,57.8,30.1 M57.7,30.2L57.7,30.2L57.7,30.2z M57.7,30.2
	C57.7,30.2,57.7,30.2,57.7,30.2C57.7,30.2,57.7,30.2,57.7,30.2 M57.8,30.2C57.8,30.2,57.8,30.2,57.8,30.2
	C57.8,30.2,57.8,30.2,57.8,30.2 M57.8,30.3C57.8,30.3,57.8,30.3,57.8,30.3C57.8,30.3,57.8,30.3,57.8,30.3
	C57.8,30.3,57.8,30.3,57.8,30.3 M63,30.2c0.1,0,0.1,0,0.2,0c0,0,0,0-0.1,0C63.1,30.2,63.1,30.2,63,30.2 M66.7,29.2
	c-0.1,0.1-0.1,0.1-0.2,0.2C66.6,29.3,66.7,29.3,66.7,29.2C66.8,29.2,66.8,29.2,66.7,29.2C66.8,29.2,66.8,29.2,66.7,29.2 M66.8,29.2
	C66.8,29.1,66.8,29.1,66.8,29.2C66.8,29.1,66.8,29.1,66.8,29.2 M66.8,29.1C66.8,29.1,66.8,29.1,66.8,29.1
	C66.8,29.1,66.8,29.1,66.8,29.1"/>
<path fill="#A7804C" d="M68.1,19.1C68.1,19.1,68.1,19,68.1,19.1c-0.2,0-0.5,0.1-0.5,0.3c-0.1,0.9-0.4,1.7-1,2.3
	c-0.1,0.1-0.1,0.2-0.1,0.2c0,0.1,0.1,0.1,0.2,0.1c0.1,0,0.2,0,0.2-0.1C67.7,21.1,68.1,20.2,68.1,19.1C68.2,19.1,68.1,19.1,68.1,19.1
	 M68.1,19.1C68.1,19.1,68.1,19.1,68.1,19.1C68.1,19.1,68.1,19.1,68.1,19.1 M68,19.1C68,19.1,68,19.1,68,19.1
	C68,19.1,68,19.1,68,19.1C68,19.1,68,19.1,68,19.1 M67.8,19.2C67.8,19.2,67.8,19.2,67.8,19.2C67.8,19.2,67.8,19.2,67.8,19.2
	 M68,19.1C68,19.1,67.9,19.1,68,19.1C67.9,19.1,68,19.1,68,19.1 M67.9,19.1C67.9,19.1,67.9,19.1,67.9,19.1
	C67.9,19.1,67.9,19.1,67.9,19.1 M67.8,19.2C67.8,19.2,67.7,19.2,67.8,19.2C67.7,19.2,67.8,19.2,67.8,19.2 M67.7,19.3
	C67.7,19.3,67.7,19.3,67.7,19.3C67.7,19.3,67.7,19.3,67.7,19.3c0,0.3-0.1,0.7-0.2,1C67.6,20,67.7,19.7,67.7,19.3 M66.6,21.7
	c0.3-0.3,0.6-0.7,0.7-1.1C67.2,21,67,21.3,66.6,21.7C66.6,21.7,66.6,21.7,66.6,21.7C66.6,21.7,66.6,21.7,66.6,21.7 M66.6,21.7
	C66.6,21.8,66.6,21.8,66.6,21.7C66.6,21.8,66.6,21.8,66.6,21.7 M66.6,21.8C66.6,21.8,66.6,21.8,66.6,21.8
	C66.6,21.8,66.6,21.8,66.6,21.8 M66.6,21.8C66.6,21.8,66.6,21.9,66.6,21.8C66.6,21.9,66.6,21.8,66.6,21.8 M66.7,21.9
	C66.7,21.9,66.6,21.9,66.7,21.9C66.6,21.9,66.7,21.9,66.7,21.9 M66.7,21.9C66.7,21.9,66.7,21.9,66.7,21.9
	C66.7,21.9,66.7,21.9,66.7,21.9C66.7,21.9,66.7,21.9,66.7,21.9 M66.8,21.8C66.8,21.9,66.8,21.9,66.8,21.8
	C66.8,21.9,66.8,21.9,66.8,21.8 M68.1,19.1C68.1,19.1,68.1,19.1,68.1,19.1C68.1,19.1,68.1,19.1,68.1,19.1"/>
<path fill="#A7804C" d="M55.5,22.8c0.4,0.3,0.7,0.8,0.9,1.3c0,0.1,0.4-0.1,0.4-0.2c-0.2-0.5-0.5-1-0.9-1.4
	C55.7,22.5,55.3,22.7,55.5,22.8"/>
</svg>
