<?xml version="1.0" encoding="utf-8"?>
<!-- Generator: Adobe Illustrator 22.0.1, SVG Export Plug-In . SVG Version: 6.00 Build 0)  -->
<svg version="1.1" id="Capa_1" xmlns="http://www.w3.org/2000/svg" xmlns:xlink="http://www.w3.org/1999/xlink" x="0px" y="0px"
	 viewBox="0 0 60 60" style="enable-background:new 0 0 60 60;" xml:space="preserve">
<style type="text/css">
	.st0{fill:#A68251;}
</style>
<g>
	<path class="st0" d="M34,29.9c0-1.9-1.3-3.4-3-3.9V15.9c0-0.6-0.4-1-1-1s-1,0.4-1,1V26c-1.4,0.4-2.5,1.5-2.9,2.9H19
		c-0.6,0-1,0.4-1,1s0.4,1,1,1h7.1c0.4,1.7,2,3,3.9,3C32.2,33.9,34,32.1,34,29.9z M30,31.9c-1.1,0-2-0.9-2-2s0.9-2,2-2s2,0.9,2,2
		S31.1,31.9,30,31.9z"/>
	<path class="st0" d="M30,9.9c0.6,0,1-0.4,1-1v-1c0-0.6-0.4-1-1-1s-1,0.4-1,1v1C29,9.4,29.4,9.9,30,9.9z"/>
	<path class="st0" d="M29,50.9v1c0,0.6,0.4,1,1,1s1-0.4,1-1v-1c0-0.6-0.4-1-1-1S29,50.3,29,50.9z"/>
	<path class="st0" d="M52,30.9c0.6,0,1-0.4,1-1s-0.4-1-1-1h-1c-0.6,0-1,0.4-1,1s0.4,1,1,1H52z"/>
	<path class="st0" d="M8,28.9c-0.6,0-1,0.4-1,1s0.4,1,1,1h1c0.6,0,1-0.4,1-1s-0.4-1-1-1H8z"/>
	<path class="st0" d="M44.8,16c0.3,0,0.5-0.1,0.7-0.3l0.7-0.7c0.4-0.4,0.4-1,0-1.4s-1-0.4-1.4,0l-0.7,0.7c-0.4,0.4-0.4,1,0,1.4
		C44.3,15.9,44.6,16,44.8,16z"/>
	<path class="st0" d="M14.4,44l-0.7,0.7c-0.4,0.4-0.4,1,0,1.4c0.2,0.2,0.5,0.3,0.7,0.3s0.5-0.1,0.7-0.3l0.7-0.7c0.4-0.4,0.4-1,0-1.4
		S14.8,43.6,14.4,44z"/>
	<path class="st0" d="M15.9,14.3l-0.7-0.7c-0.4-0.4-1-0.4-1.4,0s-0.4,1,0,1.4l0.7,0.7c0.2,0.2,0.5,0.3,0.7,0.3s0.5-0.1,0.7-0.3
		C16.2,15.3,16.2,14.7,15.9,14.3z"/>
	<path class="st0" d="M30,0C13.5,0,0,13.5,0,30s13.5,30,30,30c3.6,0,7.1-0.6,10.4-1.9c0.5-0.2,0.8-0.8,0.6-1.3
		c-0.2-0.5-0.8-0.8-1.3-0.6C36.6,57.4,33.3,58,30,58C14.6,58,2,45.4,2,30S14.6,2,30,2s28,12.6,28,28c0,3.3-0.6,6.6-1.7,9.7
		c-0.2,0.5,0.1,1.1,0.6,1.3c0.5,0.2,1.1-0.1,1.3-0.6C59.4,37.1,60,33.6,60,30C60,13.5,46.5,0,30,0z"/>
	<path class="st0" d="M50,41.1V40c0-0.6-0.4-1-1-1s-1,0.4-1,1v1.1c-1.1,0.2-2.1,0.8-2.8,1.7c-0.6,0.7-0.9,1.6-0.8,2.6
		c0.1,1,0.6,1.9,1.4,2.5l2.2,1.7V55c-1.2-0.4-2-1.5-2-2.8c0-0.6-0.4-1-1-1s-1,0.4-1,1c0,2.4,1.7,4.4,4,4.9V58c0,0.6,0.4,1,1,1
		s1-0.4,1-1v-0.9c1.1-0.2,2.1-0.8,2.8-1.7c0.6-0.7,0.9-1.6,0.8-2.6c-0.1-1-0.6-1.9-1.4-2.5L50,48.6v-5.4c1.2,0.4,2,1.5,2,2.8
		c0,0.6,0.4,1,1,1s1-0.4,1-1C54,43.6,52.3,41.6,50,41.1z M51,51.9c0.3,0.3,0.6,0.7,0.6,1.1c0,0.4-0.1,0.8-0.3,1.1
		c-0.3,0.4-0.8,0.7-1.3,0.9v-3.9L51,51.9z M47,46.3c-0.3-0.3-0.6-0.7-0.6-1.1c0-0.4,0.1-0.8,0.3-1.1c0.3-0.4,0.8-0.7,1.3-0.9v3.9
		L47,46.3z"/>
</g>
</svg>
