<?xml version="1.0" encoding="utf-8"?>
<!-- Generator: Adobe Illustrator 22.0.1, SVG Export Plug-In . SVG Version: 6.00 Build 0)  -->
<svg version="1.1" id="Слой_1" xmlns="http://www.w3.org/2000/svg" xmlns:xlink="http://www.w3.org/1999/xlink" x="0px" y="0px"
	 viewBox="0 0 1190.6 595.3" style="enable-background:new 0 0 1190.6 300.3;" xml:space="preserve">
<style type="text/css">
	.st0{fill:#0D2A3A;}
</style>
<path class="st0" d="M552,306.4c4.3-0.1,8.6,0.2,12.9-0.4c11.1-1.1,21.7-5.8,30.3-12.8c6.1,4.4,12.7,8.5,20,10.7
	c8.5,2.7,17.5,2.9,26.3,2.5c9.1-0.8,17.9-5.5,23.6-12.7c2.9-3.9,4.6-8.7,4.2-13.6c-1.4,1.3-2.7,2.7-4.1,4.1
	c-3.4,3.3-8.5,4.9-13.1,3.8c-4.2-0.8-8-3.2-11.3-5.9c-4.6-3.7-8.9-8-14-11.1c-5.3-3.4-11.4-5.5-17.7-6.5c-4.7-0.7-9.7-0.2-13.7,2.4
	c-3.7-2.3-8.1-3-12.3-2.6c-6.5,0.7-12.8,2.8-18.4,6.2c-6.4,3.8-11.5,9.3-17.5,13.6c-2.7,2-6,3.4-9.3,4c-3.9,0.8-8.1-0.4-11.2-2.8
	c-2-1.5-3.4-3.5-5.2-5.2c-0.8,6,2.1,11.8,6.1,16C533.9,302.5,542.8,306.4,552,306.4"/>
</svg>
